<svg class="icon" viewBox="0 0 1024 1024" version="1.1" xmlns="http://www.w3.org/2000/svg" width="200" height="200"><path d="M945.92 543.36c0 11.776-10.496 20.992-22.272 20.992-6.528 0-13.056-2.56-17.024-7.808-3.968-5.248-6.528-11.776-5.248-18.304 0-5.248 1.28-10.496 1.28-15.744H747.904v18.304c-1.28 13.056-11.776 22.272-23.552 22.272-13.056 0-23.552-11.776-23.552-24.832v-14.464H525.056v124.544h17.024c11.776 1.28 22.272 10.496 22.272 23.552s-11.776 23.552-24.96 23.552h-14.464V898.56c3.968 0 7.808-1.28 13.056-1.28 7.808-1.28 14.464 1.28 20.992 6.528 5.248 5.248 7.808 11.776 7.808 18.304 0 11.776-9.216 22.272-22.272 23.552-73.472 7.808-148.096-3.968-216.32-32.768-53.76-23.552-100.992-56.32-142.848-97.024C143.36 775.296 111.872 726.784 88.32 673.024c-23.552-55.04-35.456-114.048-35.456-174.336 0-60.288 11.776-119.296 35.456-174.336 14.464-32.768 30.208-62.848 51.072-90.368 0-1.28 1.28-2.56 1.28-2.56 13.056-17.024 26.24-32.768 43.264-49.792 40.704-41.984 89.088-73.344 142.848-97.024 55.04-22.272 115.328-35.328 171.776-34.048 61.568 0 119.296 11.776 174.336 35.328 53.76 23.552 100.992 55.04 142.848 97.024 41.984 40.576 73.472 89.088 97.024 142.848 24.96 55.04 36.736 114.048 35.456 174.336 0.256 14.464-1.024 28.8-2.304 43.264zM216.96 783.104c44.544 43.264 94.336 74.752 150.784 94.336-15.744-18.304-31.488-40.576-44.544-66.816-14.464-27.52-26.24-57.6-36.736-90.368-32.768 7.808-64.256 19.712-94.336 34.048 7.808 10.496 15.744 19.712 24.832 28.8z m-53.76-66.816c32.768-15.744 69.504-30.08 110.08-41.984-10.496-49.792-17.024-100.864-18.304-152.064H100.352c3.84 69.632 26.24 136.448 62.848 194.048z m2.688-437.632c-38.016 57.6-61.568 125.824-64.256 197.888h154.752c1.28-55.04 7.808-107.52 19.712-157.312-42.112-10.496-78.72-23.552-110.208-40.576z m51.072-64.256c-7.808 9.216-14.464 17.024-22.272 24.96 27.52 13.056 57.728 23.552 93.056 32.768 10.496-30.08 22.272-59.008 35.456-85.12 13.056-24.96 27.52-48.512 44.544-66.816-56.32 19.456-107.52 50.944-150.784 94.208z m260.864-114.048c-17.024 3.968-32.768 11.776-48.512 24.96-23.552 19.712-45.824 47.232-64.256 83.84-11.776 22.272-20.992 47.232-30.208 73.344 48.128 9.088 94.848 14.336 142.848 15.616V100.352z m1.408 245.12c-55.04-1.28-107.52-6.528-157.312-17.024-10.496 45.824-17.024 95.616-18.304 146.816h175.616V345.472z m0 178.176H303.488c0 49.792 6.528 98.304 17.024 141.568 51.072-10.496 103.552-15.744 158.592-17.024v-124.544z m0 170.368c-49.792 1.28-99.584 6.528-144.256 15.744 7.808 28.8 19.712 55.04 31.488 78.592 18.304 36.736 40.704 64.256 64.256 83.84 15.744 13.056 31.488 20.992 48.512 24.96V694.016z m47.104-218.88h175.616c-1.28-51.072-7.808-100.864-18.304-146.816-49.792 10.496-102.272 15.744-157.312 17.024v129.792z m48.512-349.824c-15.744-13.056-31.488-20.992-48.512-24.96h-1.28V298.24c48.512-1.28 97.024-6.528 144.256-15.744-7.808-26.24-18.304-49.792-30.208-73.344-18.304-36.736-40.576-64.256-64.256-83.84zM785.92 214.4c-43.264-43.264-94.336-74.752-149.504-94.336 15.744 18.304 31.488 40.576 44.544 66.816 13.056 26.24 24.96 55.04 35.456 85.12 35.456-9.216 65.536-19.712 93.056-32.768-7.808-7.808-15.616-17.024-23.552-24.832z m52.48 64.256c-31.488 15.744-69.504 28.8-108.8 40.576 10.496 49.792 18.304 102.272 19.712 157.312h154.752c-4.096-72.064-27.648-140.288-65.664-197.888zM668.16 646.272c72.192-60.8 179.968-51.584 240.768 20.608s51.584 179.968-20.608 240.768-179.968 51.584-240.768-20.608-51.584-179.968 20.608-240.768z m208.384 47.872c-41.216-48.896-111.232-59.392-164.352-27.52l163.584 194.176c40.448-47.104 41.984-117.76 0.768-166.656zM679.936 859.776c41.216 48.896 111.232 59.392 164.352 27.52L680.704 693.248c-40.448 46.976-41.984 117.632-0.768 166.528z" fill="#4962d7"></path></svg>