<svg class="icon" viewBox="0 0 1024 1024" version="1.1" xmlns="http://www.w3.org/2000/svg" width="200" height="200"><path d="M721.066667 1006.933333c-136.533333 0-243.2-110.933333-243.2-243.2s110.933333-243.2 243.2-243.2 243.2 110.933333 243.2 243.2-110.933333 243.2-243.2 243.2z m0-448c-110.933333 0-200.533333 89.6-200.533334 200.533334s89.6 200.533333 200.533334 200.533333 200.533333-89.6 200.533333-200.533333-89.6-200.533333-200.533333-200.533334z m-243.2 430.933334H85.333333c-12.8 0-21.333333-8.533333-21.333333-21.333334v-166.4c0-119.466667 98.133333-217.6 217.6-217.6h162.133333c12.8 0 21.333333 8.533333 21.333334 21.333334s-8.533333 21.333333-21.333334 21.333333H281.6c-98.133333 0-174.933333 81.066667-174.933333 174.933333v145.066667h371.2c12.8 0 21.333333 8.533333 21.333333 21.333333s-8.533333 21.333333-21.333333 21.333334z m247.466666-72.533334c-12.8 0-21.333333-8.533333-21.333333-21.333333v-8.533333c0-12.8 8.533333-21.333333 21.333333-21.333334s21.333333 8.533333 21.333334 21.333334v8.533333c0 8.533333-12.8 21.333333-21.333334 21.333333z m0-102.4c-12.8 0-21.333333-8.533333-21.333333-21.333333v-162.133333c0-12.8 8.533333-21.333333 21.333333-21.333334s21.333333 8.533333 21.333334 21.333334v162.133333c0 8.533333-12.8 21.333333-21.333334 21.333333z m-277.333333-285.866666c-140.8 0-251.733333-110.933333-251.733333-251.733334S307.2 25.6 448 25.6c140.8 0 251.733333 110.933333 251.733333 251.733333s-110.933333 251.733333-251.733333 251.733334z m0-460.8c-115.2 0-209.066667 93.866667-209.066667 209.066666s93.866667 209.066667 209.066667 209.066667 209.066667-93.866667 209.066667-209.066667-93.866667-209.066667-209.066667-209.066666z" fill="#4962d7"></path></svg>