<svg class="icon" viewBox="0 0 1024 1024" version="1.1" xmlns="http://www.w3.org/2000/svg" width="200" height="200"><path d="M710.72 547.168a117.44 117.44 0 0 0 117.344-117.312c0-64.704-52.64-117.376-117.344-117.376s-117.344 52.672-117.344 117.376a117.44 117.44 0 0 0 117.344 117.312z m0-186.688a69.44 69.44 0 0 1 69.344 69.376c0 38.208-31.104 69.312-69.344 69.312s-69.344-31.104-69.344-69.312a69.44 69.44 0 0 1 69.344-69.376zM913.12 650.144c-11.712-40.576-56.48-77.952-98.24-84.128l-10.496-0.064a29.44 29.44 0 0 0-12.48 3.2s-8.384 4.8-16.096 8.064a194.496 194.496 0 0 1-76.832 15.424c-6.4 0-12.736-0.256-18.88-0.928 9.12 11.552 16.928 33.056 23.264 45.568 19.712-0.448 62.528-6.496 78.24-12 5.664-1.952 11.808-4.8 11.808-4.8a28.64 28.64 0 0 1 9.184-1.888l7.808 0.128c30.816 3.616 71.008 52.064 57.12 90.688-1.216 3.424-4.096 9.376-9.312 11.68 0 0-39.904 20.736-120.896 26.048 1.76 13.824 3.168 29.248 3.904 46.112 116.672-7.616 174.112-44.448 174.112-44.448 7.168-3.872 12.832-13.568 12.672-19.616-1.888-53.088-14.88-79.04-14.88-79.04zM540.576 550.72l-13.6-0.192a37.44 37.44 0 0 0-16.096 4.064s-10.784 6.176-20.64 10.432a249.44 249.44 0 0 1-98.816 19.936 249.088 249.088 0 0 1-98.304-19.808 250.048 250.048 0 0 1-21.12-10.624 39.2 39.2 0 0 0-16.096-4.128l-13.376 0.128c-53.984 7.072-110.72 54.88-126.816 106.688 0 0-17.28 34.88-19.712 103.552-0.192 8.864 7.072 20.256 16.288 25.056 0 0 91.904 59.008 278.784 59.008 186.912 0 278.72-59.008 278.72-59.008 9.088-4.864 16.448-17.44 16.288-25.248-2.336-68.192-19.104-101.696-19.104-101.696-15.072-52.16-72.672-100.288-126.4-108.16z m74.016 204.256s-73.664 38.24-223.52 38.24-223.52-38.24-223.52-38.24c-7.424-3.136-13.184-10.496-12.992-16.256 1.952-44.576 15.808-67.2 15.808-67.2 12.896-33.568 37.184-60 80.448-64.576l10.72-0.064c3.808 0 9.568 1.12 12.928 2.56 0 0 8.8 4.128 16.896 6.944 23.52 8.192 71.616 14.688 100.096 14.688 28.672 0 75.424-6.496 99.072-14.816 7.904-2.816 16.576-6.816 16.576-6.816 3.328-1.44 9.12-2.688 12.928-2.56l10.88 0.064c43.2 5.12 69.504 31.744 81.6 65.632 0 0 13.504 21.632 15.328 66.016-0.032 5.056-5.856 13.12-13.248 16.384zM391.04 547.168a184.224 184.224 0 0 0 184.032-184c0-101.44-82.56-184-184.032-184s-184.032 82.56-184.032 184c0 101.472 82.56 184 184.032 184z m0-320a136.192 136.192 0 0 1 136.032 136c0 75.008-61.024 136-136.032 136s-136.032-60.992-136.032-136a136.192 136.192 0 0 1 136.032-136z"></path></svg>