<svg class="icon" viewBox="0 0 1024 1024" version="1.1" xmlns="http://www.w3.org/2000/svg" width="200" height="200"><path d="M891.733333 537.6c14.08 0 25.6-11.52 25.6-25.6s-11.52-25.6-25.6-25.6h-93.866666V377.6h93.866666c14.08 0 25.6-11.52 25.6-25.6s-11.52-25.6-25.6-25.6h-93.866666V251.733333c0-14.08-11.52-25.6-25.6-25.6h-74.666667V132.266667c0-14.08-11.52-25.6-25.6-25.6s-25.6 11.52-25.6 25.6v93.866666H537.6V132.266667c0-14.08-11.52-25.6-25.6-25.6s-25.6 11.52-25.6 25.6v93.866666H377.6V132.266667c0-14.08-11.52-25.6-25.6-25.6s-25.6 11.52-25.6 25.6v93.866666H251.733333c-14.08 0-25.6 11.52-25.6 25.6v74.666667H132.266667c-14.08 0-25.6 11.52-25.6 25.6s11.52 25.6 25.6 25.6h93.866666V486.4H132.266667c-14.08 0-25.6 11.52-25.6 25.6s11.52 25.6 25.6 25.6h93.866666v108.8H132.266667c-14.08 0-25.6 11.52-25.6 25.6s11.52 25.6 25.6 25.6h93.866666V772.266667c0 14.08 11.52 25.6 25.6 25.6h74.666667v93.866666c0 14.08 11.52 25.6 25.6 25.6s25.6-11.52 25.6-25.6v-93.866666H486.4v93.866666c0 14.08 11.52 25.6 25.6 25.6s25.6-11.52 25.6-25.6v-93.866666h108.8v93.866666c0 14.08 11.52 25.6 25.6 25.6s25.6-11.52 25.6-25.6v-93.866666H772.266667c14.08 0 25.6-11.52 25.6-25.6v-74.666667h93.866666c14.08 0 25.6-11.52 25.6-25.6s-11.52-25.6-25.6-25.6h-93.866666V537.6h93.866666z m-145.066666 209.066667H277.333333V277.333333h469.333334v469.333334z" fill="#3b82f6"></path><path d="M379.733333 657.066667h264.533334c7.253333 0 12.8-5.973333 12.8-12.8V379.733333c0-7.253333-5.973333-12.8-12.8-12.8H379.733333c-7.253333 0-12.8 5.973333-12.8 12.8v264.533334c0 6.826667 5.973333 12.8 12.8 12.8z m38.4-230.4c0-4.693333 3.84-8.533333 8.533334-8.533334h170.666666c4.693333 0 8.533333 3.84 8.533334 8.533334v170.666666c0 4.693333-3.84 8.533333-8.533334 8.533334h-170.666666c-4.693333 0-8.533333-3.84-8.533334-8.533334v-170.666666z" fill="#3b82f6"></path></svg>