<svg class="icon" viewBox="0 0 1024 1024" version="1.1" xmlns="http://www.w3.org/2000/svg" width="200" height="200"><path d="M751.964 869H252.108c-23.159 0-42-18.563-42-41.379V411.396c0-1.301 0.067-2.624 0.201-3.957a234.518 234.518 0 0 1-0.201-9.532c0-36.096 7.858-71.096 23.356-104.028 14.872-31.601 36.106-59.932 63.114-84.206C351.591 160.23 424.557 133 502.036 133s150.445 27.23 205.458 76.673c27.008 24.274 48.242 52.605 63.113 84.206 15.498 32.933 23.356 67.933 23.356 104.028 0 3.062-0.066 6.2-0.201 9.532 0.134 1.333 0.201 2.656 0.201 3.957v416.225c0.001 22.817-18.84 41.379-41.999 41.379z m-491.856-50h483.855V412.313l-0.386-2.111 0.14-2.879c0.166-3.393 0.246-6.472 0.246-9.415 0-118.5-108.528-214.908-241.928-214.908s-241.928 96.407-241.928 214.908c0 2.939 0.081 6.021 0.246 9.418l0.14 2.877-0.385 2.107V819z" fill=""></path><path d="M851.036 852c0 9.389-6.954 17-15.531 17H168.567c-8.578 0-15.531-7.611-15.531-17v-16c0-9.389 6.954-17 15.531-17h666.938c8.577 0 15.531 7.611 15.531 17v16zM475.911 329.815c6.102-5.949 9.896-14.252 9.896-23.446 0-18.09-14.672-32.755-32.771-32.755-3.154 0-6.2 0.455-9.086 1.286-54.263 9.797-97.585 56.842-108.994 117.34h0.181a34.713 34.713 0 0 0-0.181 3.521c0 18.514 14.672 33.522 32.772 33.522 10.027 0 18.997-4.611 25.008-11.869 6.746-44.954 40.469-80.464 83.175-87.599z" fill=""></path></svg>