<svg class="icon" viewBox="0 0 1024 1024" version="1.1" xmlns="http://www.w3.org/2000/svg" width="200" height="200"><path d="M759.893333 504.007111H264.106667c-26.510222 0-48.099556 19.683556-48.099556 44.003556V839.964444h591.985778V548.010667c0-24.32-21.617778-44.003556-48.071111-44.003556z" fill="#e9eeff" class="selected"></path><path d="M455.992889 248.007111h-47.985778a8.021333 8.021333 0 0 0-7.992889 7.992889v48.014222c0 4.380444 3.584 7.964444 7.964445 7.964445h48.014222a8.021333 8.021333 0 0 0 8.021333-7.964445V256a8.021333 8.021333 0 0 0-8.021333-7.992889z m160 0H568.035556a8.021333 8.021333 0 0 0-8.021334 7.992889v48.014222c0 4.380444 3.612444 7.964444 8.021334 7.964445h47.985777a8.021333 8.021333 0 0 0 8.021334-7.964445V256a8.021333 8.021333 0 0 0-8.021334-7.992889z" fill="#8598f3"></path><path d="M760.007111 432.014222V143.985778c0-17.692444-14.307556-32-32-32H295.992889c-17.692444 0-32 14.307556-32 32.028444v288c-66.190222 0-120.007111 52.081778-120.007111 115.996445V903.964444c0 4.408889 3.612444 8.021333 8.021333 8.021334h719.985778a8.021333 8.021333 0 0 0 8.021333-8.021334V548.010667c0-63.914667-53.816889-115.996444-120.035555-115.996445z m-424.021333-248.035555h352.028444v248.035555H336.014222v-248.035555z m472.007111 656.014222H216.007111V548.010667c0-24.32 21.617778-44.003556 48.071111-44.003556h495.815111c26.510222 0 48.099556 19.683556 48.099556 44.003556V839.964444z" fill="#8598f3"></path></svg>