<svg class="icon" viewBox="0 0 1024 1024" version="1.1" xmlns="http://www.w3.org/2000/svg" width="200" height="200"><path d="M277.504 600.576c-27.136-15.872-48.128-36.864-64-63.488-15.872-26.624-23.552-55.808-23.552-88.064s7.68-61.44 23.552-88.576 37.376-48.64 64.512-64.512 56.32-23.552 88.064-23.552 60.928 7.68 88.064 23.552c27.136 15.872 48.64 37.376 64.512 64.512 15.872 27.136 23.552 56.32 23.552 88.576s-7.68 61.44-23.552 88.064-37.376 48.128-64 63.488c-27.136 15.872-56.32 23.552-88.064 23.552-32.768 0-62.464-7.68-89.088-23.552z m146.944-49.664c16.896-9.728 30.208-23.552 39.936-41.472s14.336-37.888 14.336-60.416-4.608-43.008-14.336-60.928-23.04-31.744-39.936-41.984c-17.408-10.24-36.864-15.36-58.368-15.36-22.016 0-41.472 5.12-58.368 15.36-17.408 10.24-30.72 24.064-39.936 41.984-9.728 17.92-14.336 37.888-14.336 60.928 0 22.528 4.608 43.008 14.336 60.416 9.728 17.92 23.04 31.232 39.936 41.472 16.896 9.728 36.864 14.848 58.88 14.848 20.992 0 40.448-5.12 57.856-14.848z m161.28-20.48c4.096-6.656 11.264-10.752 21.504-12.288l3.072-0.512c8.192-1.024 14.848 0 20.48 3.584 5.12 3.584 10.752 9.728 16.384 18.432 8.192 11.776 19.456 19.968 34.304 25.088s29.696 5.632 45.056 1.536 27.136-12.288 35.84-25.6c5.632-8.192 8.192-16.896 8.704-25.088 0.512-8.192-2.048-15.872-7.168-23.04-5.12-6.656-12.288-11.776-21.504-15.36-7.168-2.56-20.48-5.12-40.448-7.68-4.096-0.512-14.848-2.048-32.256-4.608-22.528-4.096-40.96-15.36-54.784-33.28-14.336-18.432-20.992-38.912-20.992-62.464s8.192-44.032 24.064-61.44c15.36-17.408 34.816-28.16 58.88-33.28 23.552-5.12 47.616-3.584 71.168 4.608s43.008 22.528 57.856 43.52c6.144 8.704 7.68 16.384 5.12 23.552s-8.704 12.8-17.92 16.384l-2.56 1.024c-8.192 3.584-15.36 3.584-21.504 1.024s-12.8-7.68-19.456-15.872c-8.192-9.216-17.408-15.36-27.648-18.432-10.24-3.072-20.992-3.072-31.232 0s-18.944 8.704-26.624 16.896c-6.656 7.168-10.24 15.36-10.24 24.576s3.072 17.408 8.704 24.576 13.312 12.288 23.04 14.336c3.584 1.024 7.68 1.536 13.312 2.56s11.264 1.536 16.384 2.048c21.504 2.048 37.888 4.608 48.64 8.704 23.552 8.704 40.96 20.992 52.736 37.888 11.776 16.384 17.408 34.816 16.896 55.296-0.512 19.968-7.168 39.424-19.456 57.344-16.384 24.576-40.448 39.936-72.192 46.08-31.744 6.144-62.464 3.072-92.16-9.216-29.696-12.288-51.2-31.232-64.512-57.344-3.584-9.216-3.584-16.896 0.512-23.552z" fill="#6366f1"></path><path d="M847.872 864.256H176.128c-17.408 0-31.744 14.336-31.744 31.744s14.336 31.744 31.744 31.744h671.744c17.408 0 31.744-14.336 31.744-31.744s-13.824-31.744-31.744-31.744z m48.128-768H128c-35.328 0-64 28.672-64 64v576c0 35.328 28.672 64 64 64h768c35.328 0 64-28.672 64-64V159.744c0-34.816-28.672-63.488-64-63.488z m0 623.616c0 9.728-6.144 15.872-15.872 15.872H143.872c-9.728 0-15.872-6.144-15.872-15.872V176.128c0-9.728 6.144-15.872 15.872-15.872h736.256c9.728 0 15.872 6.144 15.872 15.872v543.744z" fill="#6366f1"></path></svg>