<svg class="icon" viewBox="0 0 1024 1024" version="1.1" xmlns="http://www.w3.org/2000/svg" width="200" height="200"><path d="M800 832H224c-88.22 0-160-71.78-160-160V288c0-88.22 71.78-160 160-160h576c88.22 0 160 71.78 160 160v384c0 88.22-71.78 160-160 160zM224 192a96.11 96.11 0 0 0-96 96v384a96.11 96.11 0 0 0 96 96h576a96.11 96.11 0 0 0 96-96V288a96.11 96.11 0 0 0-96-96zM864 960H160a32 32 0 0 1 0-64h704a32 32 0 0 1 0 64z" fill="#2c2c2c"></path><path d="M288 640a32 32 0 0 1-24.56-52.49l115.11-138.16a96 96 0 0 1 141.63-6.42l28.89 28.89a32 32 0 0 0 47.21-2.14l115.14-138.17a32 32 0 0 1 49.16 41L645.45 510.65a96.22 96.22 0 0 1-69.4 34.44c-1.44 0.07-2.88 0.1-4.32 0.1a96.19 96.19 0 0 1-67.91-28.12l-28.89-28.89a32 32 0 0 0-47.21 2.14L312.58 628.49A31.94 31.94 0 0 1 288 640z" fill="#2c2c2c"></path></svg>