<svg class="icon" viewBox="0 0 1024 1024" version="1.1" xmlns="http://www.w3.org/2000/svg" id="mx_n_1761808108395" width="200" height="200"><path d="M896 809.472h-768a94.037333 94.037333 0 0 1-93.866667-93.866667V179.882667c0-51.712 42.154667-93.866667 93.866667-93.866667h768c51.712 0 93.866667 42.154667 93.866667 93.866667v535.722666c0 51.712-42.154667 93.866667-93.866667 93.866667zM128 137.216a42.666667 42.666667 0 0 0-42.666667 42.666667v535.722666a42.666667 42.666667 0 0 0 42.666667 42.666667h768a42.666667 42.666667 0 0 0 42.666667-42.666667V179.882667a42.666667 42.666667 0 0 0-42.666667-42.666667h-768zM781.312 937.984H242.688c-14.165333 0-25.6-11.434667-25.6-25.6s11.434667-25.6 25.6-25.6h538.453333c14.165333 0 25.6 11.434667 25.6 25.6s-11.434667 25.6-25.429333 25.6z" fill="#516def"></path><path d="M512 643.925333c-6.485333 0-13.141333-2.56-18.090667-7.509333l-170.666666-170.666667c-10.069333-10.069333-10.069333-26.282667 0-36.181333s26.282667-10.069333 36.181333 0L512 582.144l152.576-152.576c10.069333-10.069333 26.282667-10.069333 36.181333 0s10.069333 26.282667 0 36.181333l-170.666666 170.666667c-4.949333 5.12-11.605333 7.509333-18.090667 7.509333z" fill="#516def"></path><path d="M511.829333 643.925333c-14.165333 0-25.6-11.434667-25.6-25.6v-341.333333c0-14.165333 11.434667-25.6 25.6-25.6s25.6 11.434667 25.6 25.6v341.333333c0 14.165333-11.434667 25.6-25.6 25.6z" fill="#516def"></path><path d="M696.149333 580.266667H128c-37.717333 0-68.266667-30.549333-68.266667-68.266667V179.882667c0-37.717333 30.549333-68.266667 68.266667-68.266667h568.149333c37.717333 0 68.266667 30.549333 68.266667 68.266667V512c0 37.717333-30.549333 68.266667-68.266667 68.266667z" fill="#516def" opacity=".3"></path></svg>