<svg class="icon" viewBox="0 0 1024 1024" version="1.1" xmlns="http://www.w3.org/2000/svg" width="200" height="200"><path d="M982.4 544c19.2 0 32-12.8 32-32s-12.8-32-32-32h-96v-131.2h96c19.2 0 32-12.8 32-32s-12.8-32-32-32h-96v-73.6c0-41.6-32-73.6-73.6-73.6h-73.6v-96c0-19.2-12.8-32-32-32s-32 12.8-32 32v96h-131.2v-96c0-19.2-12.8-32-32-32s-32 12.8-32 32v96h-131.2v-96c0-19.2-12.8-32-32-32s-32 12.8-32 32v96h-73.6c-41.6 0-73.6 32-73.6 73.6v73.6h-96c-19.2 0-32 12.8-32 32s12.8 32 32 32h96v131.2h-96c-19.2 0-32 12.8-32 32s12.8 32 32 32h96v131.2h-96c-19.2 0-32 12.8-32 32s12.8 32 32 32h96v73.6c0 41.6 32 73.6 73.6 73.6h73.6v96c0 19.2 12.8 32 32 32s32-12.8 32-32v-96h131.2v96c0 19.2 12.8 32 32 32s32-12.8 32-32v-96h131.2v96c0 19.2 12.8 32 32 32s32-12.8 32-32v-96h73.6c41.6 0 73.6-32 73.6-73.6v-73.6h96c19.2 0 32-12.8 32-32s-12.8-32-32-32h-96V544h96z m-310.4-160v256c0 16-16 32-32 32h-256c-16 0-32-16-32-32v-256c0-16 16-32 32-32h256c16 0 32 16 32 32z" fill="#4045d6"></path></svg>