<svg class="icon" viewBox="0 0 1024 1024" version="1.1" xmlns="http://www.w3.org/2000/svg" width="200" height="200"><path d="M343.456 156.704L261.28 546.336a16 16 0 0 0-0.336 3.296v201.136a16 16 0 0 0 16 16h644.16a16 16 0 0 0 16-16V549.616a16 16 0 0 0-0.336-3.264L855.6 156.736a16 16 0 0 0-15.68-12.736h-480.8a16 16 0 0 0-15.68 12.704z" fill="#E9EEFF"></path><path d="M696 248a24 24 0 0 1 22.928 16.896l0.56 2.176 80 380.96 0.256 1.44-0.256-1.44a24.272 24.272 0 0 1 0.512 4.928l-0.048-1.616c0.032 0.4 0.048 0.816 0.048 1.232v213.712a24 24 0 0 1-24 24H136a24 24 0 0 1-24-24V652.576a23.904 23.904 0 0 1 0.48-4.448l0.032-0.112 80-380.96a24 24 0 0 1 21.232-18.944L216 248h480zM292.608 676.944H160v165.328h592V676.944h-132.624l-24 81.28a24 24 0 0 1-20.752 17.088l-2.256 0.096H339.632a24 24 0 0 1-23.008-17.2l-24.016-81.264zM676.512 296H235.472l-69.92 332.944h144.992a24 24 0 0 1 22.272 15.072l0.752 2.144 23.984 81.248h196.88l24-81.248a24 24 0 0 1 20.768-17.104l2.24-0.096 144.992-0.016-69.92-332.944z m-80.96 127.344a24 24 0 0 1 0.352 32.16l-1.728 1.76-132.064 121.888a24 24 0 0 1-32.32 0.224l-1.744-1.744-66.032-72.928a24 24 0 0 1 33.84-33.952l1.744 1.744 49.76 54.96 114.272-105.472a24 24 0 0 1 33.92 1.36z" fill="#5E7CE0"></path></svg>