<svg class="icon" viewBox="0 0 1024 1024" version="1.1" xmlns="http://www.w3.org/2000/svg" width="200" height="200"><path d="M390.016 703.168l4.864 1.152 2.688 1.024 2.56 1.28 63.36 36.8a28.352 28.352 0 0 1-23.104 51.2l-1.792-0.768 3.136 4.032c16.384 19.456 38.912 33.28 64 38.848l11.008 1.92 9.92 0.768a117.12 117.12 0 0 0 105.728-58.176l4.672-8.832 2.304-2.944 1.92-4.096a26.496 26.496 0 0 1 9.6-11.52l4.608-2.752 5.12-1.856c9.344-2.88 24.64 1.472 29.312 11.84 3.904 8.768 4.928 13.888 2.688 23.04-0.512 2.112-4.224 10.24-4.224 10.496A171.968 171.968 0 0 1 525.824 896c-57.6-1.792-109.632-32-140.16-79.168L379.52 806.4l-2.048-3.968-3.456 6.208a28.288 28.288 0 0 1-14.08 12.608l-4.48 1.408-6.08 0.704a28.288 28.288 0 0 1-27.008-37.44l2.56-5.376 32.768-53.504 4.48-8.512a51.84 51.84 0 0 1 8.96-11.136l4.608-2.176 5.504-1.664-2.56 0.32 3.456-0.64 2.56-0.32a24.32 24.32 0 0 1 5.312 0.256zM518.4 128a311.616 311.616 0 0 1 288.32 195.008A233.92 233.92 0 0 1 985.6 552.32a235.456 235.456 0 0 1-196.352 232.704c-12.16 1.92-32-7.552-35.072-28.416-3.136-20.864 16.192-32.192 25.024-33.6a172.672 172.672 0 0 0 144.128-170.688 171.456 171.456 0 0 0-144.576-170.752l-18.56-2.944-6.016-17.92A249.344 249.344 0 0 0 518.4 190.848a249.408 249.408 0 0 0-235.776 169.792l-6.08 17.92-18.56 2.944a171.456 171.456 0 0 0-144.512 170.752 172.48 172.48 0 0 0 153.216 171.84c5.952 0.64 28.16 12.096 25.728 35.392a29.632 29.632 0 0 1-31.36 27.264C143.232 774.656 51.2 674.112 51.2 552.256a233.92 233.92 0 0 1 178.944-229.248A311.616 311.616 0 0 1 518.4 128z m18.112 401.984c57.6 1.792 109.696 32 140.16 79.168l6.208 10.368 1.92 3.84 3.584-6.208a28.288 28.288 0 0 1 14.08-12.416l4.48-1.408 6.016-0.64a28.288 28.288 0 0 1 27.008 37.248l-2.56 5.44-30.4 52.864-4.544 9.152a48.128 48.128 0 0 1-11.2 11.136l-4.672 2.176-5.44 1.664 2.368-0.32-3.392 0.64-2.432 0.256h-2.816l-2.56-0.256-4.8-1.152-2.688-1.024-2.56-1.28-63.424-36.8a28.352 28.352 0 0 1 23.168-51.2l1.728 0.704-3.072-3.968a117.184 117.184 0 0 0-64.064-38.784l-10.944-1.92-9.984-0.768a117.12 117.12 0 0 0-105.728 58.176l-4.608 8.832-2.624 5.76a33.856 33.856 0 0 1-11.264 12.8l-4.608 2.688-5.12 1.92c-12.48 3.2-20.544-1.408-28.416-8-3.968-3.392-6.848-11.392-6.656-19.2 0.128-7.552 7.36-21.504 7.36-21.504 27.2-60.032 85.12-95.36 150.272-97.92h12.224z" fill="#4045D6"></path></svg>