<svg class="icon" viewBox="0 0 1024 1024" version="1.1" xmlns="http://www.w3.org/2000/svg" width="200" height="200"><path d="M64 416c0 195.2-4.8 230.4-32 275.2-40 65.6-40 68.8 0 108.8 30.4 30.4 52.8 32 486.4 32 392 0 459.2-3.2 480-25.6C1019.2 787.2 1024 744 1024 608c0-214.4-6.4-224-153.6-224H768V192H64v224z m640-96v64h-102.4c-131.2 0-153.6 19.2-153.6 137.6V608H128V256h576v64z m256 288v160H512V448h448v160z m-512 112v48H256c-196.8 0-209.6-4.8-172.8-64 19.2-28.8 38.4-32 192-32H448v48z"></path><path d="M672 704c0 27.2 11.2 32 64 32s64-4.8 64-32-11.2-32-64-32-64 4.8-64 32z"></path></svg>