<svg height="1024" version="1.1" viewBox="0 0 1024 1024" width="1024" xmlns="http://www.w3.org/2000/svg"><defs><stop offset="0" stop-color="#dbdafa"></stop><stop offset="1" stop-color="#8b9ce0"></stop><stop offset="0" stop-color="#dbdafa"></stop><stop offset="1" stop-color="#8b9ce0"></stop><stop offset="0" stop-color="#fcfcfc"></stop><stop offset="1" stop-color="#babde8"></stop><stop offset="0" stop-color="#fcfcfc"></stop><stop offset="1" stop-color="#babde8"></stop><stop offset="0" stop-color="#fcfcfc"></stop><stop offset="1" stop-color="#babde8"></stop></defs><path d="M 895.75 612.62 C 895.57 614.47 895.46 616.32 895.11 618.17 C 894.80 619.86 894.26 621.55 893.81 623.24 C 893.36 624.93 892.88 626.93 892.22 628.77 C 891.66 630.34 890.89 631.89 890.22 633.44 C 889.34 635.44 888.49 637.44 887.40 639.44 C 885.85 642.33 884.14 645.12 882.27 647.81 C 881.91 648.31 881.53 648.81 881.16 649.32 C 879.07 652.19 876.84 654.94 874.46 657.58 C 874.17 657.91 873.91 658.24 873.61 658.58 C 871.11 661.30 868.31 663.95 865.39 666.58 C 863.39 668.35 861.26 670.06 859.11 671.78 C 857.34 673.19 855.64 674.61 853.74 675.99 C 851.41 677.68 848.84 679.31 846.32 680.99 C 843.80 682.67 841.62 684.16 839.04 685.67 C 834.90 688.07 830.59 690.30 826.20 692.44 C 824.96 693.05 823.69 693.63 822.43 694.22 C 818.95 695.83 815.40 697.37 811.79 698.83 C 810.66 699.29 809.56 699.77 808.42 700.21 C 803.85 701.97 799.19 703.61 794.42 705.13 C 789.52 706.70 784.52 708.13 779.42 709.40 C 778.62 709.61 777.84 709.87 777.04 710.07 C 771.15 711.53 765.18 712.81 759.13 713.91 C 758.21 714.08 757.27 714.18 756.35 714.34 C 749.92 715.46 743.42 716.34 736.88 717.06 C 734.58 717.31 732.27 717.54 729.96 717.74 C 725.90 718.10 721.83 718.36 717.75 718.56 C 715.25 718.68 712.75 718.82 710.25 718.88 C 706.76 718.97 703.25 718.96 699.80 718.88 C 697.13 718.88 694.45 718.88 691.80 718.78 C 688.71 718.68 685.64 718.48 682.57 718.29 C 679.74 718.11 676.91 717.96 674.10 717.71 C 671.10 717.44 668.20 717.07 665.26 716.71 C 662.32 716.35 659.62 716.06 656.83 715.64 C 653.70 715.18 650.64 714.64 647.56 714.03 C 644.97 713.56 642.35 713.11 639.80 712.57 C 635.73 711.70 631.75 710.67 627.80 709.63 C 626.06 709.17 624.27 708.78 622.56 708.28 C 616.17 706.44 609.98 704.33 603.96 702.01 C 600.96 700.85 598.04 699.60 595.15 698.33 C 593.65 697.67 592.09 697.05 590.62 696.33 C 586.17 694.23 581.83 692.01 577.68 689.61 L 186.56 463.81 C 152.36 444.06 135.40 417.90 135.48 391.31 L 135.06 443.82 C 134.98 470.42 151.93 496.57 186.14 516.32 L 577.31 742.16 C 581.46 744.56 585.80 746.78 590.31 748.89 C 591.77 749.57 593.31 750.18 594.79 750.89 C 597.20 751.95 599.56 753.06 602.05 754.04 C 602.56 754.24 603.12 754.38 603.64 754.58 C 609.64 756.90 615.85 759.02 622.24 760.86 C 622.46 760.92 622.65 761.01 622.86 761.07 C 624.36 761.49 625.95 761.79 627.46 762.20 C 631.46 763.20 635.39 764.27 639.46 765.14 C 640.02 765.26 640.54 765.42 641.10 765.54 C 643.15 765.96 645.27 766.24 647.34 766.62 C 650.34 767.18 653.41 767.75 656.49 768.21 C 657.19 768.32 657.86 768.47 658.55 768.57 C 660.69 768.87 662.88 769.04 665.03 769.29 C 667.93 769.64 670.82 770.01 673.75 770.29 C 674.49 770.36 675.21 770.47 675.96 770.53 C 678.08 770.71 680.23 770.75 682.36 770.88 C 685.36 771.06 688.41 771.26 691.45 771.36 C 692.25 771.36 693.03 771.47 693.82 771.49 C 695.73 771.54 697.64 771.49 699.54 771.49 C 703.01 771.49 706.47 771.49 709.94 771.49 C 710.94 771.49 711.86 771.49 712.82 771.49 C 714.37 771.44 715.90 771.26 717.45 771.18 C 721.53 770.98 725.60 770.72 729.66 770.37 C 730.96 770.25 732.26 770.23 733.55 770.11 C 734.55 770.01 735.55 769.80 736.55 769.68 C 743.07 768.97 749.55 768.09 755.96 766.97 C 756.70 766.85 757.46 766.80 758.19 766.66 L 758.81 766.53 C 764.85 765.42 770.81 764.14 776.70 762.69 C 777.56 762.48 778.38 762.20 779.24 761.98 C 784.24 760.69 789.18 759.31 794.03 757.76 C 794.32 757.66 794.64 757.60 794.93 757.50 C 799.37 756.06 803.72 754.50 808.00 752.83 C 809.14 752.39 810.24 751.91 811.37 751.46 C 814.98 750.00 818.53 748.46 822.01 746.84 C 823.27 746.25 824.54 745.67 825.78 745.06 C 830.17 742.92 834.48 740.69 838.61 738.29 C 839.45 737.81 840.27 737.29 841.08 736.83 C 842.78 735.83 844.22 734.71 845.83 733.66 C 848.39 732.01 850.97 730.37 853.33 728.66 C 855.22 727.28 856.91 725.87 858.67 724.46 C 860.83 722.74 863.00 721.03 864.97 719.26 C 865.42 718.85 865.97 718.47 866.41 718.07 C 868.82 715.83 871.06 713.56 873.18 711.27 C 873.50 710.92 873.76 710.57 874.07 710.22 C 875.64 708.49 877.18 706.74 878.57 704.97 C 879.34 703.97 880.01 702.97 880.73 702.02 C 881.10 701.51 881.49 701.02 881.85 700.48 C 883.51 698.11 885.06 695.73 886.42 693.32 C 886.64 692.93 886.77 692.53 886.98 692.14 C 888.06 690.14 888.92 688.14 889.80 686.14 C 890.35 684.90 891.07 683.68 891.54 682.44 C 891.66 682.12 891.70 681.79 891.82 681.44 C 892.48 679.61 892.91 677.76 893.41 675.92 C 893.78 674.52 894.33 673.13 894.61 671.73 C 894.67 671.43 894.61 671.14 894.71 670.84 C 895.06 668.99 895.17 667.15 895.35 665.29 C 895.49 663.87 895.80 662.45 895.84 661.02 C 895.84 660.48 895.84 659.93 895.84 659.39 L 896.26 606.87 C 896.26 608.68 895.94 610.65 895.75 612.62 Z" fill="url(#linear-gradient)" fill-rule="nonzero" stroke="none"></path><path d="M 895.75 612.62 C 895.57 614.47 895.46 616.32 895.11 618.17 C 894.80 619.86 894.26 621.55 893.81 623.24 C 893.36 624.93 892.88 626.93 892.22 628.77 C 891.66 630.34 890.89 631.89 890.22 633.44 C 889.34 635.44 888.49 637.44 887.40 639.44 C 885.85 642.33 884.14 645.12 882.27 647.81 C 881.91 648.31 881.53 648.81 881.16 649.32 C 879.07 652.19 876.84 654.94 874.46 657.58 C 874.17 657.91 873.91 658.24 873.61 658.58 C 871.11 661.30 868.31 663.95 865.39 666.58 C 863.39 668.35 861.26 670.06 859.11 671.78 C 857.34 673.19 855.64 674.61 853.74 675.99 C 851.41 677.68 848.84 679.31 846.32 680.99 C 843.80 682.67 841.62 684.16 839.04 685.67 C 834.90 688.07 830.59 690.30 826.20 692.44 C 824.96 693.05 823.69 693.63 822.43 694.22 C 818.95 695.83 815.40 697.37 811.79 698.83 C 810.66 699.29 809.56 699.77 808.42 700.21 C 803.85 701.97 799.19 703.61 794.42 705.13 C 789.52 706.70 784.52 708.13 779.42 709.40 C 778.62 709.61 777.84 709.87 777.04 710.07 C 771.15 711.53 765.18 712.81 759.13 713.91 C 758.21 714.08 757.27 714.18 756.35 714.34 C 749.92 715.46 743.42 716.34 736.88 717.06 C 734.58 717.31 732.27 717.54 729.96 717.74 C 725.90 718.10 721.83 718.36 717.75 718.56 C 715.25 718.68 712.75 718.82 710.25 718.88 C 706.76 718.97 703.25 718.96 699.80 718.88 C 697.13 718.88 694.45 718.88 691.80 718.78 C 688.71 718.68 685.64 718.48 682.57 718.29 C 679.74 718.11 676.91 717.96 674.10 717.71 C 671.10 717.44 668.20 717.07 665.26 716.71 C 662.32 716.35 659.62 716.06 656.83 715.64 C 653.70 715.18 650.64 714.64 647.56 714.03 C 644.97 713.56 642.35 713.11 639.80 712.57 C 635.73 711.70 631.75 710.67 627.80 709.63 C 626.06 709.17 624.27 708.78 622.56 708.28 C 616.17 706.44 609.98 704.33 603.96 702.01 C 600.96 700.85 598.04 699.60 595.15 698.33 C 593.65 697.67 592.09 697.05 590.62 696.33 C 586.17 694.23 581.83 692.01 577.68 689.61 L 186.56 463.81 C 152.36 444.06 135.40 417.90 135.48 391.31 L 135.06 443.82 C 134.98 470.42 151.93 496.57 186.14 516.32 L 577.31 742.16 C 581.46 744.56 585.80 746.78 590.31 748.89 C 591.77 749.57 593.31 750.18 594.79 750.89 C 597.20 751.95 599.56 753.06 602.05 754.04 C 602.56 754.24 603.12 754.38 603.64 754.58 C 609.64 756.90 615.85 759.02 622.24 760.86 C 622.46 760.92 622.65 761.01 622.86 761.07 C 624.36 761.49 625.95 761.79 627.46 762.20 C 631.46 763.20 635.39 764.27 639.46 765.14 C 640.02 765.26 640.54 765.42 641.10 765.54 C 643.15 765.96 645.27 766.24 647.34 766.62 C 650.34 767.18 653.41 767.75 656.49 768.21 C 657.19 768.32 657.86 768.47 658.55 768.57 C 660.69 768.87 662.88 769.04 665.03 769.29 C 667.93 769.64 670.82 770.01 673.75 770.29 C 674.49 770.36 675.21 770.47 675.96 770.53 C 678.08 770.71 680.23 770.75 682.36 770.88 C 685.36 771.06 688.41 771.26 691.45 771.36 C 692.25 771.36 693.03 771.47 693.82 771.49 C 695.73 771.54 697.64 771.49 699.54 771.49 C 703.01 771.49 706.47 771.49 709.94 771.49 C 710.94 771.49 711.86 771.49 712.82 771.49 C 714.37 771.44 715.90 771.26 717.45 771.18 C 721.53 770.98 725.60 770.72 729.66 770.37 C 730.96 770.25 732.26 770.23 733.55 770.11 C 734.55 770.01 735.55 769.80 736.55 769.68 C 743.07 768.97 749.55 768.09 755.96 766.97 C 756.70 766.85 757.46 766.80 758.19 766.66 L 758.81 766.53 C 764.85 765.42 770.81 764.14 776.70 762.69 C 777.56 762.48 778.38 762.20 779.24 761.98 C 784.24 760.69 789.18 759.31 794.03 757.76 C 794.32 757.66 794.64 757.60 794.93 757.50 C 799.37 756.06 803.72 754.50 808.00 752.83 C 809.14 752.39 810.24 751.91 811.37 751.46 C 814.98 750.00 818.53 748.46 822.01 746.84 C 823.27 746.25 824.54 745.67 825.78 745.06 C 830.17 742.92 834.48 740.69 838.61 738.29 C 839.45 737.81 840.27 737.29 841.08 736.83 C 842.78 735.83 844.22 734.71 845.83 733.66 C 848.39 732.01 850.97 730.37 853.33 728.66 C 855.22 727.28 856.91 725.87 858.67 724.46 C 860.83 722.74 863.00 721.03 864.97 719.26 C 865.42 718.85 865.97 718.47 866.41 718.07 C 868.82 715.83 871.06 713.56 873.18 711.27 C 873.50 710.92 873.76 710.57 874.07 710.22 C 875.64 708.49 877.18 706.74 878.57 704.97 C 879.34 703.97 880.01 702.97 880.73 702.02 C 881.10 701.51 881.49 701.02 881.85 700.48 C 883.51 698.11 885.06 695.73 886.42 693.32 C 886.64 692.93 886.77 692.53 886.98 692.14 C 888.06 690.14 888.92 688.14 889.80 686.14 C 890.35 684.90 891.07 683.68 891.54 682.44 C 891.66 682.12 891.70 681.79 891.82 681.44 C 892.48 679.61 892.91 677.76 893.41 675.92 C 893.78 674.52 894.33 673.13 894.61 671.73 C 894.67 671.43 894.61 671.14 894.71 670.84 C 895.06 668.99 895.17 667.15 895.35 665.29 C 895.49 663.87 895.80 662.45 895.84 661.02 C 895.84 660.48 895.84 659.93 895.84 659.39 L 896.26 606.87 C 896.26 608.68 895.94 610.65 895.75 612.62 Z" fill="url(#linear-gradient-2)" fill-rule="nonzero" stroke="none"></path><path d="M 768.11 352.47 C 849.20 399.29 869.31 468.14 828.11 525.71 C 833.95 528.23 839.65 531.07 845.18 534.22 C 915.60 574.88 912.89 642.68 839.01 685.62 C 765.13 728.56 648.14 730.31 577.72 689.62 L 186.56 463.81 C 116.15 423.15 118.86 355.35 192.68 312.45 C 266.50 269.55 383.60 267.72 454.00 308.38 C 459.12 311.35 464.05 314.64 468.75 318.24 C 568.00 294.19 687.00 305.62 768.11 352.47 Z" fill="#eaeafe" fill-rule="nonzero" stroke="none"></path><path d="M 702.14 729.20 C 654.64 729.20 607.91 719.08 572.53 698.65 L 181.37 472.81 C 145.12 451.88 125.13 423.03 125.09 391.59 C 125.09 358.17 147.19 326.87 187.45 303.46 C 264.08 258.92 386.00 257.10 459.22 299.38 C 463.22 301.68 467.11 304.20 471.06 307.02 C 575.06 283.02 693.21 297.22 773.30 343.48 C 819.70 370.27 848.61 404.69 856.91 443.03 C 862.66 469.59 857.91 496.46 843.31 521.39 C 845.78 522.65 848.14 523.92 850.37 525.20 C 886.63 546.14 906.61 574.98 906.66 606.43 C 906.66 639.86 884.54 671.18 844.24 694.61 C 804.65 717.61 753.00 729.20 702.14 729.20 Z M 329.64 289.31 C 282.58 289.31 234.64 300.08 197.90 321.43 C 164.80 340.67 145.83 366.23 145.90 391.56 C 145.90 415.28 162.24 437.76 191.79 454.82 L 582.93 680.66 C 650.40 719.66 762.93 717.81 833.80 676.66 C 866.93 657.39 885.91 631.82 885.88 606.48 C 885.88 582.76 869.54 560.30 839.99 543.23 C 834.80 540.28 829.46 537.61 823.99 535.23 L 812.27 530.07 L 819.72 519.67 C 836.07 496.81 841.92 471.84 836.64 447.44 C 829.64 414.98 804.13 385.25 762.95 361.44 L 762.95 361.44 C 686.00 317.05 571.50 304.07 471.23 328.33 L 466.43 329.50 L 462.50 326.50 C 458.14 323.16 453.57 320.10 448.82 317.35 C 416.32 298.61 373.36 289.31 329.64 289.31 Z" fill="#eae9ff" fill-rule="nonzero" stroke="none"></path><path d="M 450.22 243.59 L 439.65 27.12 C 440.15 9.00 463.00 3.11 473.19 9.00 L 792.00 193.00 C 802.04 198.81 808.23 209.53 808.23 221.13 L 808.23 441.62 C 808.23 463.18 791.44 469.62 779.86 461.81 L 461.37 262.90 C 454.47 258.92 450.22 251.56 450.22 243.59 Z" fill="#abafd6" fill-rule="nonzero" stroke="none"></path><path d="M 221.00 388.00 L 429.93 279.35 C 435.54 276.11 442.46 276.11 448.07 279.35 L 783.66 473.12 C 786.41 474.71 788.10 477.65 788.10 480.82 C 788.10 484.00 786.41 486.94 783.66 488.53 L 579.84 607.34 C 569.32 613.43 556.36 613.43 545.84 607.34 L 222.00 420.34 C 212.17 414.46 207.91 397.79 221.00 388.00 Z" fill="#abafd6" fill-rule="nonzero" stroke="none"></path><path d="M 788.12 468.36 L 788.09 481.41 L 780.41 487.21 L 788.12 468.36 Z" fill="#abafd6" fill-rule="nonzero" stroke="none"></path><path d="M 222.00 387.32 L 430.00 267.26 C 435.61 264.02 442.53 264.02 448.14 267.26 L 783.66 461.00 C 786.41 462.59 788.10 465.53 788.10 468.70 C 788.10 471.88 786.41 474.82 783.66 476.41 L 579.84 595.25 C 569.32 601.34 556.36 601.34 545.84 595.25 L 222.00 408.24 C 218.26 406.08 215.96 402.09 215.96 397.78 C 215.96 393.47 218.26 389.48 222.00 387.32 Z" fill="url(#linear-gradient-3)" fill-rule="nonzero" stroke="none"></path><path d="M 511.79 471.80 L 428.86 423.91 C 423.25 420.67 414.13 420.67 408.56 423.91 L 353.33 456.00 C 347.76 459.23 347.84 464.49 353.44 467.72 L 436.38 515.61 C 441.99 518.85 451.06 518.88 456.63 515.61 L 511.86 483.52 C 517.43 480.32 517.40 475.00 511.79 471.80 Z" fill="#320c7e" fill-rule="nonzero" stroke="none"></path><path d="M 439.65 249.81 L 439.65 28.49 C 439.64 23.01 442.57 17.94 447.31 15.21 C 452.06 12.47 457.91 12.47 462.65 15.22 L 781.40 199.22 C 791.45 205.02 797.64 215.74 797.64 227.34 L 797.64 447.85 C 797.64 452.29 795.28 456.40 791.43 458.62 C 787.58 460.84 782.84 460.83 779.00 458.61 L 450.80 269.12 C 443.90 265.14 439.65 257.78 439.65 249.81 Z" fill="url(#linear-gradient-4)" fill-rule="nonzero" stroke="none"></path><path d="M 449.14 249.11 L 449.14 39.53 C 449.15 34.35 451.92 29.58 456.41 26.99 C 460.89 24.41 466.42 24.41 470.90 27.00 L 772.74 201.24 C 782.25 206.73 788.11 216.88 788.12 227.87 L 788.12 436.65 C 788.12 440.85 785.87 444.74 782.23 446.84 C 778.60 448.94 774.11 448.94 770.47 446.84 L 459.70 267.40 C 453.16 263.63 449.14 256.66 449.14 249.11 Z" fill="#320c7e" fill-rule="nonzero" stroke="none"></path><path d="M 618.65 118.31 C 621.76 120.34 623.72 123.73 623.91 127.44 C 623.91 130.79 621.53 132.14 618.61 130.44 C 615.50 128.41 613.54 125.02 613.34 121.31 C 613.35 118.00 615.73 116.62 618.65 118.31 Z" fill="url(#linear-gradient-5)" fill-rule="nonzero" stroke="none"></path><path d="M 324.84 345.00 L 657.07 536.82 C 660.16 538.61 663.98 538.61 667.07 536.82 L 759.85 483.26 C 761.40 482.37 762.36 480.71 762.36 478.93 C 762.36 477.14 761.40 475.48 759.85 474.59 L 427.62 282.78 C 424.53 280.99 420.71 280.99 417.62 282.78 L 324.84 336.34 C 323.29 337.23 322.34 338.88 322.34 340.67 C 322.34 342.46 323.29 344.11 324.84 345.00 Z" fill="#abafd6" fill-rule="nonzero" stroke="none"></path><path d="M 727.40 474.40 L 742.73 483.25 C 743.36 483.54 744.08 483.51 744.68 483.17 L 749.25 480.54 C 749.83 480.20 750.06 479.20 749.56 478.91 L 734.06 470.55 C 733.42 470.26 732.67 470.29 732.06 470.64 L 727.47 472.76 C 727.19 472.94 727.02 473.23 727.01 473.56 C 726.99 473.89 727.14 474.20 727.40 474.40 Z" fill="#3f3f3f" fill-rule="nonzero" stroke="none"></path><path d="M 727.46 473.83 L 742.79 482.69 C 743.43 482.99 744.18 482.95 744.79 482.60 L 749.36 479.97 C 749.94 479.63 750.00 479.13 749.50 478.84 L 734.12 470.00 C 733.48 469.70 732.73 469.73 732.12 470.08 L 727.56 472.72 C 727.00 473.00 727.00 473.54 727.46 473.83 Z" fill="#fcfcfc" fill-rule="nonzero" stroke="none"></path><path d="M 712.23 485.73 L 725.35 493.30 C 726.12 493.65 727.01 493.61 727.74 493.20 L 736.32 488.25 C 737.03 487.84 737.23 486.60 736.62 486.25 L 723.38 479.30 C 722.61 478.95 721.72 478.99 720.98 479.40 L 712.17 483.82 C 711.87 484.05 711.70 484.41 711.71 484.79 C 711.72 485.17 711.92 485.52 712.23 485.73 Z" fill="#3f3f3f" fill-rule="nonzero" stroke="none"></path><path d="M 712.23 485.00 L 725.35 492.57 C 726.12 492.92 727.00 492.88 727.74 492.47 L 736.32 487.52 C 737.03 487.11 737.11 486.52 736.49 486.13 L 723.38 478.56 C 722.61 478.21 721.72 478.25 720.98 478.66 L 712.40 483.61 C 711.69 484.00 711.61 484.59 712.23 485.00 Z" fill="#fcfcfc" fill-rule="nonzero" stroke="none"></path><path d="M 648.42 522.61 L 661.54 530.18 C 662.31 530.53 663.19 530.49 663.93 530.08 L 672.51 525.08 C 673.22 524.67 673.44 523.34 672.83 522.99 L 659.57 516.12 C 658.80 515.77 657.91 515.81 657.17 516.22 L 648.38 520.52 C 648.05 520.77 647.87 521.16 647.87 521.58 C 647.88 521.99 648.08 522.37 648.42 522.61 Z" fill="#3f3f3f" fill-rule="nonzero" stroke="none"></path><path d="M 648.46 521.76 L 661.58 529.34 C 662.35 529.69 663.23 529.65 663.97 529.24 L 672.55 524.24 C 673.26 523.83 673.34 523.24 672.73 522.86 L 659.61 515.28 C 658.84 514.94 657.95 514.98 657.21 515.38 L 648.63 520.38 C 647.92 520.79 647.84 521.41 648.46 521.76 Z" fill="#fcfcfc" fill-rule="nonzero" stroke="none"></path><path d="M 626.68 510.20 L 639.80 517.77 C 640.57 518.12 641.46 518.08 642.19 517.67 L 650.78 512.72 C 651.49 512.31 651.78 510.92 651.21 510.57 L 637.83 503.76 C 637.06 503.41 636.17 503.45 635.43 503.86 L 626.81 508.00 C 626.49 508.27 626.29 508.65 626.26 509.07 C 626.24 509.49 626.39 509.90 626.68 510.20 Z" fill="#3f3f3f" fill-rule="nonzero" stroke="none"></path><path d="M 626.80 509.26 L 639.92 516.83 C 640.69 517.18 641.58 517.14 642.31 516.73 L 650.90 511.73 C 651.61 511.32 651.68 510.73 651.07 510.34 L 638.00 502.82 C 637.23 502.47 636.34 502.51 635.60 502.92 L 627.00 507.87 C 626.26 508.28 626.19 508.90 626.80 509.26 Z" fill="#fcfcfc" fill-rule="nonzero" stroke="none"></path><path d="M 605.22 497.69 L 618.34 505.27 C 619.11 505.62 619.99 505.58 620.73 505.17 L 629.31 500.17 C 630.02 499.76 630.23 498.36 629.61 498.01 L 616.37 491.22 C 615.60 490.87 614.71 490.91 613.97 491.32 L 604.97 495.58 C 604.31 496.00 604.60 497.34 605.22 497.69 Z" fill="#3f3f3f" fill-rule="nonzero" stroke="none"></path><path d="M 605.14 496.75 L 618.26 504.33 C 619.03 504.68 619.91 504.64 620.65 504.23 L 629.24 499.23 C 629.94 498.82 630.02 498.23 629.41 497.85 L 616.29 490.27 C 615.52 489.93 614.63 489.97 613.89 490.37 L 605.31 495.37 C 604.60 495.78 604.53 496.40 605.14 496.75 Z" fill="#fcfcfc" fill-rule="nonzero" stroke="none"></path><path d="M 578.64 482.22 L 596.40 492.47 C 597.28 492.88 598.31 492.84 599.15 492.36 L 607.34 487.62 C 608.16 487.15 608.45 485.82 607.74 485.42 L 589.74 475.79 C 588.86 475.38 587.83 475.42 586.99 475.90 L 578.66 480.09 C 578.31 480.33 578.09 480.72 578.09 481.15 C 578.08 481.58 578.29 481.98 578.64 482.22 Z" fill="#3f3f3f" fill-rule="nonzero" stroke="none"></path><path d="M 578.68 481.48 L 596.43 491.72 C 597.32 492.12 598.34 492.08 599.19 491.61 L 607.38 486.88 C 608.20 486.41 608.29 485.70 607.58 485.29 L 589.83 475.00 C 588.95 474.59 587.92 474.64 587.08 475.12 L 578.88 479.85 C 578.07 480.36 578.00 481.07 578.68 481.48 Z" fill="#fcfcfc" fill-rule="nonzero" stroke="none"></path><path d="M 451.59 409.15 L 569.44 477.15 C 570.58 477.67 571.90 477.61 573.00 477.00 L 580.36 472.75 C 581.36 472.15 581.82 470.45 580.92 469.93 L 462.74 402.71 C 461.60 402.20 460.29 402.25 459.20 402.86 L 451.66 406.25 C 451.19 406.58 450.90 407.11 450.89 407.68 C 450.88 408.25 451.14 408.80 451.59 409.15 Z" fill="#3f3f3f" fill-rule="nonzero" stroke="none"></path><path d="M 451.62 408.12 L 569.47 476.12 C 570.60 476.64 571.91 476.59 573.00 476.00 L 580.36 471.75 C 581.36 471.15 581.52 470.23 580.62 469.75 L 462.77 401.75 C 461.63 401.24 460.32 401.29 459.23 401.90 L 451.87 406.14 C 450.83 406.68 450.71 407.59 451.62 408.12 Z" fill="#fcfcfc" fill-rule="nonzero" stroke="none"></path><path d="M 663.64 494.63 L 692.90 511.52 C 694.02 512.02 695.31 511.97 696.38 511.38 L 703.79 507.09 C 704.79 506.50 705.30 505.00 704.41 504.48 L 674.79 488.19 C 673.67 487.69 672.38 487.74 671.31 488.34 L 663.67 492.00 C 663.23 492.29 662.96 492.78 662.95 493.31 C 662.94 493.84 663.20 494.33 663.64 494.63 Z" fill="#3f3f3f" fill-rule="nonzero" stroke="none"></path><path d="M 663.70 493.75 L 693.00 510.64 C 694.12 511.14 695.41 511.09 696.48 510.49 L 703.89 506.21 C 704.89 505.62 705.04 504.71 704.14 504.21 L 674.89 487.32 C 673.77 486.81 672.48 486.86 671.41 487.46 L 664.00 491.73 C 662.92 492.33 662.81 493.23 663.70 493.75 Z" fill="#fcfcfc" fill-rule="nonzero" stroke="none"></path><path d="M 641.12 500.05 L 676.74 520.61 C 677.97 521.16 679.38 521.10 680.56 520.45 L 687.61 516.38 C 688.74 515.73 689.17 514.17 688.19 513.61 L 652.27 493.61 C 651.04 493.05 649.62 493.11 648.44 493.77 L 641.29 497.25 C 640.78 497.52 640.45 498.03 640.42 498.60 C 640.38 499.17 640.65 499.72 641.12 500.05 Z" fill="#3f3f3f" fill-rule="nonzero" stroke="none"></path><path d="M 641.24 499.19 L 676.85 519.75 C 678.08 520.30 679.50 520.24 680.68 519.59 L 687.73 515.52 C 688.86 514.87 688.98 513.88 688.00 513.31 L 652.39 492.75 C 651.16 492.19 649.74 492.25 648.56 492.91 L 641.56 496.98 C 640.38 497.63 640.26 498.62 641.24 499.19 Z" fill="#fcfcfc" fill-rule="nonzero" stroke="none"></path><path d="M 683.63 487.82 L 709.00 502.43 C 710.04 502.91 711.25 502.86 712.25 502.30 L 719.91 497.88 C 720.91 497.32 721.04 495.54 720.20 495.06 L 694.83 481.38 C 693.78 480.91 692.57 480.96 691.57 481.52 L 683.66 485.30 C 683.23 485.57 682.97 486.04 682.97 486.55 C 682.96 487.06 683.21 487.54 683.63 487.82 Z" fill="#3f3f3f" fill-rule="nonzero" stroke="none"></path><path d="M 683.69 486.88 L 709.00 501.49 C 710.05 501.96 711.25 501.91 712.26 501.36 L 719.92 496.93 C 720.92 496.38 720.99 495.54 720.15 495.06 L 694.84 480.44 C 693.79 479.97 692.59 480.02 691.58 480.57 L 683.92 485.00 C 683.00 485.55 682.85 486.40 683.69 486.88 Z" fill="#fcfcfc" fill-rule="nonzero" stroke="none"></path><path d="M 690.53 473.15 L 703.65 480.72 C 704.42 481.07 705.31 481.03 706.04 480.62 L 714.62 475.67 C 715.33 475.26 715.62 474.12 715.00 473.77 L 701.68 466.71 C 700.91 466.36 700.02 466.40 699.28 466.81 L 690.62 471.22 C 690.30 471.43 690.10 471.78 690.08 472.16 C 690.06 472.54 690.23 472.91 690.53 473.15 Z" fill="#3f3f3f" fill-rule="nonzero" stroke="none"></path><path d="M 690.57 472.44 L 703.68 480.00 C 704.45 480.35 705.34 480.31 706.08 479.90 L 714.66 474.90 C 715.37 474.49 715.45 473.90 714.84 473.52 L 701.72 466.00 C 700.95 465.65 700.06 465.69 699.32 466.10 L 690.74 471.10 C 690.00 471.47 690.00 472.09 690.57 472.44 Z" fill="#fcfcfc" fill-rule="nonzero" stroke="none"></path><path d="M 668.91 460.88 L 682.00 468.45 C 682.77 468.80 683.65 468.76 684.39 468.35 L 692.97 463.35 C 693.68 462.94 693.97 461.52 693.31 461.16 L 680.03 454.39 C 679.26 454.04 678.37 454.08 677.63 454.49 L 668.83 458.73 C 668.50 459.00 668.32 459.40 668.34 459.82 C 668.35 460.25 668.56 460.64 668.91 460.88 Z" fill="#3f3f3f" fill-rule="nonzero" stroke="none"></path><path d="M 668.91 459.94 L 682.00 467.51 C 682.77 467.86 683.65 467.82 684.39 467.41 L 692.97 462.41 C 693.68 462.00 693.76 461.41 693.15 461.02 L 680.03 453.45 C 679.26 453.10 678.37 453.14 677.63 453.55 L 669.05 458.50 C 668.37 459.00 668.29 459.58 668.91 459.94 Z" fill="#fcfcfc" fill-rule="nonzero" stroke="none"></path><path d="M 661.59 475.00 L 674.70 482.57 C 675.47 482.92 676.36 482.88 677.10 482.47 L 685.68 477.52 C 686.39 477.11 686.68 475.78 686.09 475.42 L 672.73 468.56 C 671.96 468.21 671.08 468.25 670.34 468.66 L 661.60 473.03 C 661.29 473.26 661.10 473.62 661.10 474.01 C 661.10 474.40 661.28 474.77 661.59 475.00 Z" fill="#3f3f3f" fill-rule="nonzero" stroke="none"></path><path d="M 661.66 474.21 L 674.78 481.78 C 675.55 482.13 676.44 482.09 677.18 481.68 L 685.76 476.68 C 686.47 476.28 686.55 475.68 685.93 475.30 L 672.81 467.73 C 672.04 467.38 671.15 467.42 670.42 467.83 L 661.84 472.78 C 661.13 473.23 661.05 473.85 661.66 474.21 Z" fill="#fcfcfc" fill-rule="nonzero" stroke="none"></path><path d="M 641.59 481.93 L 654.71 489.50 C 655.48 489.85 656.37 489.81 657.11 489.40 L 665.69 484.45 C 666.40 484.04 666.69 482.75 666.08 482.40 L 652.74 475.49 C 651.97 475.14 651.08 475.18 650.35 475.59 L 641.56 480.00 C 641.27 480.24 641.10 480.60 641.11 480.97 C 641.11 481.35 641.29 481.70 641.59 481.93 Z" fill="#3f3f3f" fill-rule="nonzero" stroke="none"></path><path d="M 641.59 481.10 L 654.71 488.68 C 655.48 489.03 656.37 488.99 657.11 488.58 L 665.69 483.58 C 666.40 483.17 666.48 482.58 665.86 482.20 L 652.74 474.63 C 651.97 474.28 651.08 474.32 650.35 474.73 L 641.77 479.73 C 641.06 480.13 641.00 480.75 641.59 481.10 Z" fill="#fcfcfc" fill-rule="nonzero" stroke="none"></path><path d="M 618.93 487.21 L 632.05 494.78 C 632.82 495.13 633.71 495.09 634.44 494.68 L 643.03 489.73 C 643.73 489.32 644.03 488.05 643.36 487.73 L 630.08 480.81 C 629.31 480.46 628.42 480.50 627.68 480.91 L 618.84 485.18 C 618.56 485.45 618.40 485.83 618.42 486.22 C 618.44 486.61 618.62 486.97 618.93 487.21 Z" fill="#3f3f3f" fill-rule="nonzero" stroke="none"></path><path d="M 618.89 486.34 L 632.00 493.92 C 632.77 494.27 633.65 494.23 634.39 493.82 L 642.98 488.82 C 643.69 488.42 643.76 487.82 643.15 487.44 L 630.00 479.91 C 629.23 479.56 628.34 479.60 627.60 480.01 L 619.06 485.00 C 618.35 485.37 618.28 486.00 618.89 486.34 Z" fill="#fcfcfc" fill-rule="nonzero" stroke="none"></path><path d="M 597.32 474.52 L 610.44 482.09 C 611.21 482.44 612.10 482.40 612.83 481.99 L 621.42 477.04 C 622.12 476.63 622.28 475.45 621.67 475.04 L 608.47 468.04 C 607.70 467.69 606.81 467.73 606.07 468.14 L 597.22 472.55 C 596.90 472.79 596.73 473.17 596.75 473.56 C 596.77 473.96 596.98 474.32 597.32 474.52 Z" fill="#3f3f3f" fill-rule="nonzero" stroke="none"></path><path d="M 597.23 473.84 L 610.35 481.41 C 611.12 481.76 612.01 481.73 612.75 481.32 L 621.33 476.32 C 622.04 475.91 622.11 475.32 621.50 474.94 L 608.38 467.36 C 607.61 467.01 606.72 467.05 605.98 467.46 L 597.40 472.46 C 596.70 472.87 596.62 473.49 597.23 473.84 Z" fill="#fcfcfc" fill-rule="nonzero" stroke="none"></path><path d="M 575.63 462.10 L 588.75 469.67 C 589.52 470.02 590.41 469.98 591.15 469.57 L 599.73 464.62 C 600.44 464.21 600.63 463.00 600.01 462.62 L 586.78 455.62 C 586.01 455.27 585.12 455.31 584.38 455.72 L 575.50 460.04 C 574.79 460.49 575.00 461.75 575.63 462.10 Z" fill="#3f3f3f" fill-rule="nonzero" stroke="none"></path><path d="M 575.57 461.33 L 588.69 468.91 C 589.46 469.26 590.35 469.22 591.09 468.81 L 599.67 463.86 C 600.38 463.45 600.45 462.86 599.84 462.47 L 586.72 454.90 C 585.95 454.55 585.06 454.59 584.33 455.00 L 575.74 460.00 C 575.00 460.36 575.00 461.00 575.57 461.33 Z" fill="#fcfcfc" fill-rule="nonzero" stroke="none"></path><path d="M 553.91 449.61 L 567.00 457.19 C 567.77 457.54 568.66 457.50 569.40 457.09 L 577.98 452.09 C 578.69 451.69 578.98 450.39 578.33 450.03 L 565.03 443.14 C 564.26 442.79 563.37 442.83 562.64 443.24 L 553.89 447.56 C 553.57 447.80 553.38 448.19 553.38 448.59 C 553.38 449.00 553.58 449.37 553.91 449.61 Z" fill="#3f3f3f" fill-rule="nonzero" stroke="none"></path><path d="M 553.91 448.83 L 567.00 456.41 C 567.77 456.75 568.66 456.71 569.40 456.31 L 577.98 451.31 C 578.69 450.90 578.77 450.31 578.15 449.93 L 565.03 442.35 C 564.26 442.00 563.38 442.04 562.64 442.45 L 554.05 447.45 C 553.38 447.86 553.30 448.48 553.91 448.83 Z" fill="#fcfcfc" fill-rule="nonzero" stroke="none"></path><path d="M 532.25 437.15 L 545.37 444.72 C 546.14 445.07 547.03 445.03 547.77 444.62 L 556.35 439.67 C 557.06 439.26 557.26 437.93 556.64 437.58 L 543.40 430.71 C 542.63 430.36 541.75 430.40 541.01 430.81 L 532.30 435.08 C 531.98 435.32 531.79 435.70 531.78 436.10 C 531.77 436.51 531.94 436.89 532.25 437.15 Z" fill="#3f3f3f" fill-rule="nonzero" stroke="none"></path><path d="M 532.25 436.32 L 545.37 443.90 C 546.14 444.25 547.03 444.21 547.77 443.80 L 556.35 438.80 C 557.06 438.40 557.13 437.80 556.52 437.42 L 543.40 429.85 C 542.63 429.50 541.74 429.54 541.01 429.95 L 532.43 434.90 C 531.72 435.35 531.64 436.00 532.25 436.32 Z" fill="#fcfcfc" fill-rule="nonzero" stroke="none"></path><path d="M 510.60 424.70 L 523.71 432.28 C 524.48 432.63 525.37 432.59 526.11 432.18 L 534.69 427.18 C 535.40 426.77 535.62 425.40 535.01 425.04 L 521.74 418.23 C 520.97 417.88 520.08 417.92 519.35 418.33 L 510.48 422.68 C 510.16 422.93 509.99 423.32 510.01 423.72 C 510.03 424.12 510.25 424.49 510.60 424.70 Z" fill="#3f3f3f" fill-rule="nonzero" stroke="none"></path><path d="M 510.60 423.82 L 523.71 431.39 C 524.48 431.74 525.37 431.71 526.11 431.30 L 534.69 426.30 C 535.40 425.89 535.48 425.30 534.86 424.92 L 521.74 417.34 C 520.97 416.99 520.09 417.03 519.35 417.44 L 510.77 422.44 C 510.06 422.85 510.00 423.47 510.60 423.82 Z" fill="#fcfcfc" fill-rule="nonzero" stroke="none"></path><path d="M 488.94 412.11 L 502.06 419.68 C 502.83 420.03 503.71 420.00 504.45 419.59 L 513.03 414.59 C 513.74 414.18 514.03 412.88 513.36 412.53 L 500.08 405.63 C 499.31 405.28 498.43 405.32 497.69 405.73 L 488.85 410.14 C 488.53 410.37 488.35 410.75 488.36 411.15 C 488.38 411.55 488.60 411.91 488.94 412.11 Z" fill="#3f3f3f" fill-rule="nonzero" stroke="none"></path><path d="M 488.94 411.32 L 502.06 418.89 C 502.83 419.24 503.71 419.20 504.45 418.79 L 513.03 413.79 C 513.74 413.38 513.82 412.79 513.20 412.40 L 500.08 404.83 C 499.31 404.48 498.42 404.52 497.69 404.93 L 489.11 409.88 C 488.40 410.34 488.32 411.00 488.94 411.32 Z" fill="#fcfcfc" fill-rule="nonzero" stroke="none"></path><path d="M 467.19 399.69 L 480.31 407.27 C 481.08 407.62 481.96 407.58 482.70 407.17 L 491.28 402.17 C 491.99 401.76 492.28 400.33 491.65 399.98 L 478.34 393.22 C 477.57 392.87 476.68 392.91 475.94 393.32 L 467.23 397.58 C 466.89 397.82 466.69 398.21 466.68 398.62 C 466.68 399.04 466.86 399.43 467.19 399.69 Z" fill="#3f3f3f" fill-rule="nonzero" stroke="none"></path><path d="M 467.28 398.81 L 480.40 406.39 C 481.17 406.74 482.05 406.70 482.79 406.29 L 491.37 401.29 C 492.08 400.88 492.16 400.29 491.55 399.91 L 478.43 392.33 C 477.66 391.98 476.77 392.02 476.03 392.43 L 467.45 397.43 C 466.74 397.84 466.66 398.46 467.28 398.81 Z" fill="#fcfcfc" fill-rule="nonzero" stroke="none"></path><path d="M 445.59 387.19 L 458.71 394.76 C 459.48 395.11 460.37 395.07 461.10 394.66 L 469.68 389.66 C 470.39 389.25 470.68 387.92 470.05 387.56 L 456.74 380.70 C 455.97 380.35 455.08 380.39 454.34 380.80 L 445.54 385.04 C 445.21 385.30 445.02 385.71 445.03 386.13 C 445.04 386.55 445.25 386.94 445.59 387.19 Z" fill="#3f3f3f" fill-rule="nonzero" stroke="none"></path><path d="M 445.62 386.30 L 458.74 393.88 C 459.51 394.23 460.39 394.19 461.13 393.78 L 469.72 388.83 C 470.42 388.42 470.50 387.83 469.88 387.44 L 456.77 379.87 C 456.00 379.52 455.11 379.56 454.37 379.97 L 445.79 384.92 C 445.08 385.33 445.00 386.00 445.62 386.30 Z" fill="#fcfcfc" fill-rule="nonzero" stroke="none"></path><path d="M 424.17 393.25 L 442.47 403.81 C 443.37 404.21 444.40 404.17 445.26 403.69 L 453.41 398.98 C 454.24 398.51 454.54 396.98 453.82 396.60 L 435.32 386.81 C 434.42 386.41 433.39 386.45 432.53 386.93 L 424.12 390.88 C 423.76 391.17 423.55 391.61 423.56 392.08 C 423.57 392.54 423.80 392.97 424.17 393.25 Z" fill="#3f3f3f" fill-rule="nonzero" stroke="none"></path><path d="M 424.17 392.30 L 442.47 402.87 C 443.37 403.27 444.40 403.23 445.26 402.75 L 453.41 398.04 C 454.24 397.56 454.33 396.84 453.61 396.43 L 435.32 385.87 C 434.43 385.46 433.39 385.50 432.53 385.98 L 424.37 390.69 C 423.55 391.17 423.46 391.89 424.17 392.30 Z" fill="#fcfcfc" fill-rule="nonzero" stroke="none"></path><path d="M 424.00 374.74 L 437.12 382.32 C 437.89 382.67 438.77 382.63 439.51 382.22 L 448.09 377.22 C 448.80 376.81 449.09 375.44 448.45 375.08 L 435.15 368.27 C 434.38 367.92 433.49 367.95 432.75 368.36 L 424.00 372.55 C 423.69 372.83 423.51 373.23 423.51 373.64 C 423.51 374.06 423.69 374.46 424.00 374.74 Z" fill="#3f3f3f" fill-rule="nonzero" stroke="none"></path><path d="M 424.00 373.80 L 437.12 381.38 C 437.89 381.73 438.77 381.69 439.51 381.28 L 448.10 376.28 C 448.80 375.87 448.88 375.28 448.27 374.90 L 435.15 367.32 C 434.38 366.98 433.49 367.02 432.75 367.42 L 424.17 372.42 C 423.42 372.83 423.35 373.45 424.00 373.80 Z" fill="#fcfcfc" fill-rule="nonzero" stroke="none"></path><path d="M 402.42 380.75 L 415.54 388.32 C 416.31 388.67 417.20 388.63 417.94 388.22 L 426.52 383.22 C 427.23 382.81 427.42 381.35 426.81 380.99 L 413.57 374.26 C 412.80 373.91 411.92 373.95 411.18 374.36 L 402.31 378.50 C 401.60 379.00 401.81 380.39 402.42 380.75 Z" fill="#3f3f3f" fill-rule="nonzero" stroke="none"></path><path d="M 402.34 379.73 L 415.46 387.30 C 416.23 387.65 417.12 387.61 417.86 387.20 L 426.44 382.25 C 427.15 381.84 427.23 381.25 426.61 380.87 L 413.49 373.29 C 412.72 372.94 411.84 372.98 411.10 373.39 L 402.51 378.39 C 401.81 378.76 401.73 379.37 402.34 379.73 Z" fill="#fcfcfc" fill-rule="nonzero" stroke="none"></path><path d="M 380.57 368.13 L 393.69 375.70 C 394.46 376.05 395.35 376.01 396.08 375.60 L 404.66 370.60 C 405.37 370.19 405.76 368.85 405.14 368.50 L 391.72 361.64 C 390.95 361.29 390.06 361.33 389.32 361.74 L 380.55 366.06 C 380.22 366.30 380.02 366.69 380.03 367.10 C 380.03 367.51 380.23 367.90 380.57 368.13 Z" fill="#3f3f3f" fill-rule="nonzero" stroke="none"></path><path d="M 380.68 367.22 L 393.80 374.80 C 394.57 375.15 395.46 375.11 396.20 374.70 L 404.78 369.70 C 405.49 369.29 405.57 368.70 404.95 368.32 L 391.83 360.75 C 391.06 360.40 390.17 360.44 389.44 360.85 L 380.86 365.80 C 380.15 366.25 380.07 366.87 380.68 367.22 Z" fill="#fcfcfc" fill-rule="nonzero" stroke="none"></path><path d="M 359.00 355.54 L 372.12 363.12 C 372.89 363.47 373.77 363.43 374.51 363.02 L 383.09 358.02 C 383.80 357.61 384.09 356.32 383.44 355.96 L 370.14 349.07 C 369.37 348.72 368.48 348.76 367.75 349.17 L 358.95 353.44 C 358.62 353.70 358.44 354.09 358.45 354.50 C 358.46 354.92 358.66 355.30 359.00 355.54 Z" fill="#3f3f3f" fill-rule="nonzero" stroke="none"></path><path d="M 359.00 354.72 L 372.12 362.29 C 372.89 362.64 373.78 362.60 374.51 362.19 L 383.09 357.24 C 383.80 356.83 383.88 356.24 383.26 355.86 L 370.14 348.28 C 369.37 347.93 368.49 347.97 367.75 348.38 L 359.17 353.38 C 358.49 353.75 358.41 354.37 359.00 354.72 Z" fill="#fcfcfc" fill-rule="nonzero" stroke="none"></path><path d="M 334.82 341.56 L 350.32 350.51 C 351.15 350.89 352.11 350.85 352.91 350.41 L 361.28 345.57 C 362.05 345.13 362.35 343.79 361.69 343.41 L 346.00 335.13 C 345.17 334.75 344.21 334.78 343.41 335.23 L 334.90 339.48 C 334.56 339.71 334.34 340.09 334.33 340.50 C 334.31 340.91 334.49 341.31 334.82 341.56 Z" fill="#3f3f3f" fill-rule="nonzero" stroke="none"></path><path d="M 334.90 340.79 L 350.40 349.74 C 351.23 350.11 352.19 350.07 352.98 349.63 L 361.36 344.79 C 362.13 344.35 362.21 343.68 361.54 343.30 L 346.05 334.35 C 345.22 333.98 344.26 334.02 343.46 334.46 L 335.08 339.30 C 334.32 339.74 334.23 340.41 334.90 340.79 Z" fill="#fcfcfc" fill-rule="nonzero" stroke="none"></path><path d="M 402.21 362.15 L 415.33 369.73 C 416.10 370.07 416.99 370.03 417.73 369.63 L 426.31 364.63 C 427.02 364.22 427.38 362.89 426.77 362.54 L 413.36 355.67 C 412.59 355.32 411.71 355.36 410.97 355.77 L 402.19 360.06 C 401.86 360.31 401.68 360.70 401.68 361.11 C 401.68 361.52 401.88 361.91 402.21 362.15 Z" fill="#3f3f3f" fill-rule="nonzero" stroke="none"></path><path d="M 402.30 361.30 L 415.42 368.87 C 416.19 369.22 417.07 369.18 417.81 368.77 L 426.40 363.82 C 427.10 363.41 427.18 362.82 426.57 362.43 L 413.45 354.86 C 412.68 354.51 411.79 354.55 411.06 354.96 L 402.47 359.96 C 401.76 360.32 401.69 360.94 402.30 361.30 Z" fill="#fcfcfc" fill-rule="nonzero" stroke="none"></path><path d="M 351.47 333.05 L 392.89 357.00 C 394.21 357.59 395.74 357.53 397.00 356.82 L 403.74 352.93 C 404.96 352.23 405.34 350.28 404.29 349.67 L 362.62 326.67 C 361.30 326.07 359.77 326.13 358.50 326.84 L 351.50 329.96 C 350.99 330.30 350.67 330.88 350.67 331.50 C 350.66 332.12 350.96 332.70 351.47 333.05 Z" fill="#3f3f3f" fill-rule="nonzero" stroke="none"></path><path d="M 351.55 332.00 L 393.00 355.91 C 394.32 356.50 395.85 356.44 397.12 355.74 L 403.86 351.84 C 405.07 351.14 405.21 350.08 404.15 349.47 L 362.70 325.56 C 361.38 324.96 359.85 325.02 358.58 325.73 L 351.84 329.62 C 350.62 330.32 350.49 331.39 351.55 332.00 Z" fill="#fcfcfc" fill-rule="nonzero" stroke="none"></path><path d="M 619.93 469.54 L 633.05 477.11 C 633.82 477.46 634.71 477.42 635.45 477.01 L 644.03 472.06 C 644.74 471.65 644.94 470.18 644.32 469.82 L 631.08 463.10 C 630.31 462.75 629.43 462.79 628.69 463.20 L 619.90 467.38 C 619.59 467.66 619.42 468.05 619.42 468.47 C 619.43 468.88 619.61 469.27 619.93 469.54 Z" fill="#3f3f3f" fill-rule="nonzero" stroke="none"></path><path d="M 619.93 468.60 L 633.05 476.17 C 633.82 476.52 634.71 476.48 635.45 476.07 L 644.03 471.12 C 644.74 470.71 644.82 470.12 644.20 469.73 L 631.08 462.16 C 630.31 461.81 629.43 461.85 628.69 462.26 L 620.11 467.21 C 619.40 467.62 619.32 468.24 619.93 468.60 Z" fill="#fcfcfc" fill-rule="nonzero" stroke="none"></path><path d="M 598.35 456.92 L 611.47 464.49 C 612.24 464.84 613.13 464.80 613.87 464.39 L 622.45 459.44 C 623.16 459.03 623.38 457.76 622.77 457.44 L 609.50 450.51 C 608.73 450.16 607.85 450.20 607.11 450.61 L 598.27 454.89 C 597.98 455.15 597.82 455.53 597.83 455.92 C 597.85 456.32 598.04 456.68 598.35 456.92 Z" fill="#3f3f3f" fill-rule="nonzero" stroke="none"></path><path d="M 598.28 456.09 L 611.40 463.67 C 612.17 464.02 613.05 463.98 613.79 463.57 L 622.37 458.57 C 623.08 458.16 623.16 457.57 622.54 457.19 L 609.43 449.62 C 608.66 449.27 607.77 449.31 607.03 449.72 L 598.45 454.67 C 597.74 455.12 597.66 455.74 598.28 456.09 Z" fill="#fcfcfc" fill-rule="nonzero" stroke="none"></path><path d="M 576.58 444.45 L 589.70 452.00 C 590.47 452.34 591.35 452.30 592.09 451.90 L 600.68 446.90 C 601.38 446.49 601.68 445.10 601.03 444.74 L 587.73 437.94 C 586.96 437.59 586.07 437.63 585.33 438.04 L 576.63 442.19 C 576.28 442.46 576.07 442.87 576.06 443.31 C 576.05 443.75 576.24 444.17 576.58 444.45 Z" fill="#3f3f3f" fill-rule="nonzero" stroke="none"></path><path d="M 576.62 443.59 L 589.74 451.16 C 590.51 451.51 591.40 451.47 592.13 451.06 L 600.71 446.11 C 601.42 445.70 601.50 445.11 600.89 444.72 L 587.77 437.15 C 587.00 436.80 586.11 436.84 585.37 437.25 L 576.79 442.25 C 576.08 442.61 576.00 443.23 576.62 443.59 Z" fill="#fcfcfc" fill-rule="nonzero" stroke="none"></path><path d="M 554.92 431.91 L 568.00 439.48 C 568.77 439.83 569.66 439.79 570.39 439.38 L 578.97 434.43 C 579.68 434.02 579.97 432.77 579.38 432.43 L 566.03 425.48 C 565.26 425.13 564.37 425.17 563.63 425.58 L 554.94 429.88 C 554.63 430.12 554.45 430.50 554.44 430.89 C 554.44 431.29 554.61 431.66 554.92 431.91 Z" fill="#3f3f3f" fill-rule="nonzero" stroke="none"></path><path d="M 555.00 431.08 L 568.12 438.66 C 568.89 439.01 569.77 438.97 570.51 438.56 L 579.09 433.56 C 579.80 433.15 579.88 432.56 579.27 432.18 L 566.15 424.61 C 565.38 424.26 564.49 424.30 563.75 424.71 L 555.17 429.66 C 554.42 430.11 554.34 430.73 555.00 431.08 Z" fill="#fcfcfc" fill-rule="nonzero" stroke="none"></path><path d="M 533.30 419.31 L 546.42 426.89 C 547.19 427.24 548.07 427.20 548.81 426.79 L 557.39 421.79 C 558.10 421.38 558.39 420.14 557.73 419.79 L 544.45 412.84 C 543.68 412.49 542.79 412.53 542.05 412.94 L 533.22 417.32 C 532.90 417.56 532.71 417.94 532.73 418.34 C 532.75 418.74 532.96 419.10 533.30 419.31 Z" fill="#3f3f3f" fill-rule="nonzero" stroke="none"></path><path d="M 533.30 418.58 L 546.42 426.15 C 547.19 426.50 548.08 426.46 548.81 426.05 L 557.39 421.10 C 558.10 420.69 558.18 420.10 557.57 419.72 L 544.45 412.14 C 543.68 411.79 542.79 411.83 542.05 412.24 L 533.47 417.24 C 532.76 417.61 532.68 418.22 533.30 418.58 Z" fill="#fcfcfc" fill-rule="nonzero" stroke="none"></path><path d="M 511.68 407.00 L 524.80 414.58 C 525.57 414.93 526.45 414.89 527.19 414.48 L 535.78 409.53 C 536.48 409.12 536.66 407.67 536.05 407.32 L 522.83 400.57 C 522.06 400.22 521.17 400.26 520.43 400.67 L 511.54 404.97 C 510.83 405.38 511.07 406.66 511.68 407.00 Z" fill="#3f3f3f" fill-rule="nonzero" stroke="none"></path><path d="M 511.64 406.07 L 524.76 413.65 C 525.53 414.00 526.41 413.96 527.15 413.55 L 535.74 408.55 C 536.45 408.14 536.52 407.55 535.91 407.17 L 522.79 399.60 C 522.02 399.25 521.13 399.29 520.39 399.70 L 511.81 404.65 C 511.10 405.10 511.00 405.72 511.64 406.07 Z" fill="#fcfcfc" fill-rule="nonzero" stroke="none"></path><path d="M 489.92 394.33 L 503.00 401.91 C 503.77 402.26 504.66 402.22 505.40 401.81 L 513.98 396.81 C 514.69 396.40 514.92 395.10 514.31 394.74 L 501.03 387.86 C 500.26 387.51 499.37 387.55 498.64 387.96 L 490.00 392.30 C 489.68 392.53 489.48 392.90 489.47 393.30 C 489.45 393.69 489.62 394.07 489.92 394.33 Z" fill="#3f3f3f" fill-rule="nonzero" stroke="none"></path><path d="M 490.00 393.57 L 503.12 401.14 C 503.89 401.49 504.78 401.45 505.51 401.04 L 514.10 396.04 C 514.81 395.63 514.88 395.04 514.27 394.66 L 501.15 387.08 C 500.38 386.73 499.50 386.77 498.76 387.18 L 490.17 392.18 C 489.44 392.60 489.37 393.21 490.00 393.57 Z" fill="#fcfcfc" fill-rule="nonzero" stroke="none"></path><path d="M 468.29 381.83 L 481.41 389.40 C 482.18 389.75 483.07 389.71 483.81 389.30 L 492.39 384.35 C 493.10 383.94 493.39 382.73 492.76 382.35 L 479.44 375.35 C 478.67 375.00 477.79 375.04 477.05 375.45 L 468.32 379.77 C 467.99 380.01 467.79 380.39 467.78 380.79 C 467.78 381.20 467.97 381.58 468.29 381.83 Z" fill="#3f3f3f" fill-rule="nonzero" stroke="none"></path><path d="M 468.32 381.06 L 481.44 388.64 C 482.21 388.99 483.10 388.95 483.84 388.54 L 492.42 383.54 C 493.13 383.13 493.20 382.54 492.59 382.16 L 479.47 374.59 C 478.70 374.24 477.81 374.28 477.08 374.69 L 468.49 379.64 C 467.79 380.09 467.71 380.71 468.32 381.06 Z" fill="#fcfcfc" fill-rule="nonzero" stroke="none"></path><path d="M 446.59 369.54 L 459.70 377.11 C 460.47 377.46 461.36 377.42 462.10 377.01 L 470.68 372.06 C 471.39 371.65 471.79 370.28 471.18 369.92 L 457.73 363.10 C 456.96 362.75 456.08 362.79 455.34 363.20 L 446.59 367.39 C 446.27 367.66 446.09 368.05 446.09 368.46 C 446.09 368.88 446.27 369.27 446.59 369.54 Z" fill="#3f3f3f" fill-rule="nonzero" stroke="none"></path><path d="M 446.66 368.56 L 459.78 376.13 C 460.55 376.48 461.44 376.44 462.18 376.03 L 470.76 371.08 C 471.47 370.67 471.54 370.08 470.93 369.70 L 457.81 362.12 C 457.04 361.77 456.16 361.81 455.42 362.22 L 446.84 367.22 C 446.13 367.59 446.05 368.20 446.66 368.56 Z" fill="#fcfcfc" fill-rule="nonzero" stroke="none"></path><path d="M 424.93 357.00 L 438.00 364.53 C 438.77 364.88 439.66 364.84 440.40 364.43 L 448.98 359.48 C 449.69 359.07 449.98 357.66 449.39 357.31 L 436.03 350.52 C 435.26 350.17 434.38 350.21 433.64 350.62 L 425.00 354.78 C 424.66 355.05 424.46 355.45 424.45 355.87 C 424.43 356.30 424.61 356.71 424.93 357.00 Z" fill="#3f3f3f" fill-rule="nonzero" stroke="none"></path><path d="M 425.00 356.05 L 438.12 363.63 C 438.89 363.98 439.78 363.94 440.52 363.53 L 449.10 358.53 C 449.81 358.13 449.89 357.53 449.27 357.15 L 436.15 349.58 C 435.38 349.23 434.49 349.27 433.76 349.68 L 425.18 354.63 C 424.47 355.08 424.39 355.70 425.00 356.05 Z" fill="#fcfcfc" fill-rule="nonzero" stroke="none"></path><path d="M 403.27 344.65 L 416.39 352.22 C 417.16 352.57 418.05 352.53 418.78 352.12 L 427.36 347.17 C 428.07 346.76 428.44 345.25 427.83 344.89 L 414.41 338.21 C 413.64 337.86 412.76 337.90 412.02 338.31 L 403.20 342.42 C 402.89 342.71 402.72 343.13 402.74 343.55 C 402.75 343.98 402.94 344.38 403.27 344.65 Z" fill="#3f3f3f" fill-rule="nonzero" stroke="none"></path><path d="M 403.35 343.55 L 416.46 351.12 C 417.23 351.47 418.12 351.43 418.86 351.02 L 427.44 346.07 C 428.15 345.66 428.23 345.07 427.61 344.69 L 414.50 337.11 C 413.73 336.76 412.84 336.80 412.10 337.21 L 403.52 342.21 C 402.81 342.58 402.73 343.19 403.35 343.55 Z" fill="#fcfcfc" fill-rule="nonzero" stroke="none"></path><path d="M 367.00 323.68 L 394.25 339.42 C 395.33 339.90 396.58 339.85 397.62 339.28 L 405.16 334.93 C 406.16 334.35 406.59 332.64 405.72 332.14 L 378.14 317.24 C 377.06 316.75 375.81 316.80 374.77 317.38 L 366.88 321.08 C 366.46 321.39 366.22 321.89 366.24 322.41 C 366.27 322.94 366.55 323.41 367.00 323.68 Z" fill="#3f3f3f" fill-rule="nonzero" stroke="none"></path><path d="M 367.09 322.62 L 394.35 338.36 C 395.43 338.85 396.68 338.80 397.72 338.22 L 405.26 333.87 C 406.26 333.29 406.36 332.42 405.50 331.92 L 378.24 316.18 C 377.16 315.69 375.91 315.74 374.87 316.32 L 367.34 320.67 C 366.34 321.25 366.23 322.12 367.09 322.62 Z" fill="#fcfcfc" fill-rule="nonzero" stroke="none"></path><path d="M 639.89 462.52 L 653.00 470.10 C 653.77 470.45 654.65 470.41 655.39 470.00 L 663.97 465.00 C 664.68 464.59 665.05 463.31 664.44 463.00 L 651.00 456.09 C 650.23 455.74 649.34 455.78 648.60 456.19 L 640.00 460.50 C 639.67 460.72 639.47 461.09 639.44 461.48 C 639.42 461.88 639.59 462.26 639.89 462.52 Z" fill="#3f3f3f" fill-rule="nonzero" stroke="none"></path><path d="M 640.00 461.70 L 653.12 469.27 C 653.89 469.62 654.78 469.58 655.52 469.17 L 664.10 464.22 C 664.81 463.81 664.89 463.22 664.27 462.84 L 651.15 455.26 C 650.38 454.91 649.50 454.95 648.76 455.36 L 640.18 460.36 C 639.47 460.73 639.39 461.35 640.00 461.70 Z" fill="#fcfcfc" fill-rule="nonzero" stroke="none"></path><path d="M 618.38 449.94 L 631.50 457.51 C 632.27 457.86 633.16 457.82 633.90 457.41 L 642.48 452.41 C 643.19 452.00 643.35 450.81 642.74 450.41 L 629.53 443.41 C 628.76 443.06 627.88 443.10 627.14 443.51 L 618.24 447.92 C 617.53 448.42 617.77 449.59 618.38 449.94 Z" fill="#3f3f3f" fill-rule="nonzero" stroke="none"></path><path d="M 618.35 449.19 L 631.47 456.77 C 632.24 457.12 633.12 457.08 633.86 456.67 L 642.44 451.72 C 643.15 451.31 643.23 450.72 642.61 450.33 L 629.49 442.76 C 628.72 442.41 627.83 442.45 627.10 442.86 L 618.52 447.81 C 617.81 448.22 617.73 448.84 618.35 449.19 Z" fill="#fcfcfc" fill-rule="nonzero" stroke="none"></path><path d="M 596.73 437.59 L 609.85 445.17 C 610.62 445.52 611.50 445.48 612.24 445.07 L 620.82 440.07 C 621.53 439.66 621.69 438.26 621.08 437.91 L 607.87 431.12 C 607.10 430.77 606.21 430.81 605.48 431.22 L 596.56 435.52 C 595.85 436.00 596.11 437.24 596.73 437.59 Z" fill="#3f3f3f" fill-rule="nonzero" stroke="none"></path><path d="M 596.69 436.69 L 609.80 444.26 C 610.57 444.61 611.46 444.57 612.20 444.16 L 620.78 439.16 C 621.49 438.75 621.57 438.16 620.96 437.78 L 607.84 430.20 C 607.07 429.85 606.18 429.89 605.44 430.30 L 596.86 435.30 C 596.15 435.72 596.07 436.34 596.69 436.69 Z" fill="#fcfcfc" fill-rule="nonzero" stroke="none"></path><path d="M 575.00 425.00 L 588.12 432.57 C 588.89 432.92 589.78 432.88 590.51 432.47 L 599.09 427.47 C 599.80 427.06 600.09 425.77 599.43 425.41 L 586.15 418.51 C 585.38 418.16 584.49 418.20 583.75 418.61 L 575.00 423.00 C 574.70 423.25 574.53 423.61 574.53 424.00 C 574.53 424.39 574.70 424.75 575.00 425.00 Z" fill="#3f3f3f" fill-rule="nonzero" stroke="none"></path><path d="M 575.00 424.19 L 588.12 431.76 C 588.89 432.11 589.77 432.07 590.51 431.66 L 599.09 426.66 C 599.80 426.25 599.88 425.66 599.27 425.27 L 586.15 417.70 C 585.38 417.35 584.49 417.39 583.75 417.80 L 575.17 422.75 C 574.49 423.21 574.41 423.83 575.00 424.19 Z" fill="#fcfcfc" fill-rule="nonzero" stroke="none"></path><path d="M 553.41 412.58 L 566.53 420.16 C 567.30 420.51 568.18 420.47 568.92 420.06 L 577.50 415.06 C 578.21 414.65 578.42 413.25 577.81 412.90 L 564.56 406.11 C 563.79 405.76 562.90 405.80 562.16 406.21 L 553.35 410.37 C 553.03 410.65 552.85 411.06 552.86 411.49 C 552.87 411.92 553.07 412.32 553.41 412.58 Z" fill="#3f3f3f" fill-rule="nonzero" stroke="none"></path><path d="M 553.37 411.68 L 566.49 419.25 C 567.26 419.60 568.14 419.57 568.88 419.16 L 577.46 414.16 C 578.17 413.75 578.25 413.16 577.64 412.78 L 564.52 405.20 C 563.75 404.85 562.86 404.89 562.12 405.30 L 553.54 410.30 C 552.83 410.71 552.75 411.33 553.37 411.68 Z" fill="#fcfcfc" fill-rule="nonzero" stroke="none"></path><path d="M 531.61 399.94 L 544.73 407.52 C 545.50 407.87 546.38 407.83 547.12 407.42 L 555.70 402.42 C 556.41 402.01 556.65 400.79 556.04 400.42 L 542.76 393.42 C 541.99 393.07 541.10 393.11 540.36 393.52 L 531.75 397.83 C 531.39 398.05 531.16 398.43 531.13 398.85 C 531.10 399.27 531.28 399.68 531.61 399.94 Z" fill="#3f3f3f" fill-rule="nonzero" stroke="none"></path><path d="M 531.71 399.17 L 544.83 406.75 C 545.60 407.10 546.49 407.06 547.22 406.65 L 555.80 401.70 C 556.52 401.29 556.59 400.70 555.98 400.31 L 542.86 392.74 C 542.09 392.39 541.20 392.43 540.46 392.84 L 531.88 397.84 C 531.17 398.20 531.10 398.82 531.71 399.17 Z" fill="#fcfcfc" fill-rule="nonzero" stroke="none"></path><path d="M 510.00 387.49 L 523.12 395.07 C 523.89 395.42 524.78 395.38 525.52 394.97 L 534.10 389.97 C 534.81 389.57 535.10 388.21 534.46 387.86 L 521.15 381.02 C 520.38 380.67 519.49 380.71 518.76 381.12 L 509.96 385.49 C 509.64 385.72 509.45 386.10 509.46 386.50 C 509.47 386.90 509.67 387.27 510.00 387.49 Z" fill="#3f3f3f" fill-rule="nonzero" stroke="none"></path><path d="M 510.05 386.67 L 523.17 394.24 C 523.94 394.59 524.82 394.56 525.56 394.15 L 534.15 389.15 C 534.86 388.74 534.93 388.15 534.32 387.77 L 521.20 380.19 C 520.43 379.84 519.55 379.88 518.81 380.29 L 510.22 385.29 C 509.51 385.70 509.44 386.32 510.05 386.67 Z" fill="#fcfcfc" fill-rule="nonzero" stroke="none"></path><path d="M 488.33 375.00 L 501.45 382.57 C 502.22 382.92 503.11 382.88 503.85 382.47 L 512.43 377.52 C 513.14 377.11 513.50 375.83 512.88 375.47 L 499.48 368.56 C 498.71 368.21 497.83 368.25 497.09 368.66 L 488.42 372.83 C 488.09 373.09 487.90 373.48 487.88 373.89 C 487.86 374.31 488.03 374.71 488.33 375.00 Z" fill="#3f3f3f" fill-rule="nonzero" stroke="none"></path><path d="M 488.39 374.17 L 501.51 381.74 C 502.28 382.09 503.16 382.05 503.90 381.64 L 512.49 376.69 C 513.20 376.28 513.27 375.69 512.66 375.30 L 499.54 367.73 C 498.77 367.38 497.88 367.42 497.15 367.83 L 488.56 372.78 C 487.85 373.19 487.78 373.81 488.39 374.17 Z" fill="#fcfcfc" fill-rule="nonzero" stroke="none"></path><path d="M 466.70 362.57 L 479.82 370.15 C 480.59 370.50 481.48 370.46 482.22 370.05 L 490.80 365.05 C 491.51 364.64 491.80 363.30 491.21 362.95 L 477.85 356.10 C 477.08 355.75 476.19 355.79 475.46 356.20 L 466.61 360.51 C 466.29 360.77 466.12 361.16 466.13 361.56 C 466.15 361.97 466.36 362.34 466.70 362.57 Z" fill="#3f3f3f" fill-rule="nonzero" stroke="none"></path><path d="M 466.73 361.66 L 479.85 369.23 C 480.62 369.58 481.51 369.55 482.25 369.14 L 490.83 364.14 C 491.54 363.73 491.61 363.14 491.00 362.76 L 477.88 355.18 C 477.11 354.83 476.23 354.87 475.49 355.28 L 466.91 360.28 C 466.20 360.69 466.12 361.31 466.73 361.66 Z" fill="#fcfcfc" fill-rule="nonzero" stroke="none"></path><path d="M 445.00 350.13 L 458.12 357.70 C 458.89 358.05 459.78 358.01 460.52 357.60 L 469.10 352.60 C 469.81 352.19 470.10 350.79 469.51 350.43 L 456.15 343.64 C 455.38 343.29 454.50 343.33 453.76 343.74 L 445.12 347.81 C 444.77 348.09 444.56 348.50 444.54 348.94 C 444.51 349.39 444.68 349.82 445.00 350.13 Z" fill="#3f3f3f" fill-rule="nonzero" stroke="none"></path><path d="M 445.07 349.16 L 458.19 356.73 C 458.96 357.08 459.85 357.04 460.59 356.63 L 469.17 351.68 C 469.88 351.27 469.96 350.68 469.34 350.29 L 456.22 342.72 C 455.45 342.37 454.57 342.41 453.83 342.82 L 445.25 347.77 C 444.54 348.18 444.46 348.80 445.07 349.16 Z" fill="#fcfcfc" fill-rule="nonzero" stroke="none"></path><path d="M 423.26 337.47 L 436.38 345.05 C 437.15 345.40 438.03 345.36 438.77 344.95 L 447.35 339.95 C 448.06 339.55 448.57 338.30 447.95 337.95 L 434.41 331.00 C 433.64 330.65 432.75 330.69 432.01 331.10 L 423.39 335.38 C 423.05 335.61 422.84 335.98 422.81 336.39 C 422.78 336.80 422.95 337.20 423.26 337.47 Z" fill="#3f3f3f" fill-rule="nonzero" stroke="none"></path><path d="M 423.42 336.65 L 436.53 344.23 C 437.30 344.58 438.19 344.54 438.93 344.13 L 447.51 339.13 C 448.22 338.72 448.30 338.13 447.68 337.75 L 434.56 330.17 C 433.79 329.82 432.91 329.86 432.17 330.27 L 423.59 335.27 C 422.88 335.68 422.80 336.30 423.42 336.65 Z" fill="#fcfcfc" fill-rule="nonzero" stroke="none"></path><path d="M 383.11 314.54 L 414.28 332.54 C 415.43 333.06 416.76 333.00 417.87 332.39 L 425.17 328.17 C 426.23 327.56 426.53 325.61 425.61 325.08 L 394.26 308.08 C 393.11 307.56 391.78 307.62 390.67 308.23 L 383.13 311.54 C 382.65 311.88 382.36 312.44 382.35 313.03 C 382.35 313.63 382.63 314.19 383.11 314.54 Z" fill="#3f3f3f" fill-rule="nonzero" stroke="none"></path><path d="M 383.15 313.41 L 414.32 331.41 C 415.47 331.93 416.80 331.87 417.91 331.26 L 425.21 327.05 C 426.27 326.43 426.39 325.51 425.47 324.97 L 394.30 307.00 C 393.15 306.48 391.82 306.54 390.71 307.15 L 383.41 311.36 C 382.35 312.00 382.23 312.88 383.15 313.41 Z" fill="#fcfcfc" fill-rule="nonzero" stroke="none"></path><path d="M 647.25 448.37 L 660.37 456.00 C 661.14 456.35 662.02 456.31 662.76 455.90 L 671.34 450.90 C 672.05 450.49 672.34 449.12 671.72 448.77 L 658.40 441.95 C 657.63 441.59 656.74 441.63 656.00 442.05 L 647.18 446.21 C 646.88 446.49 646.71 446.89 646.72 447.31 C 646.74 447.72 646.93 448.11 647.25 448.37 Z" fill="#3f3f3f" fill-rule="nonzero" stroke="none"></path><path d="M 647.25 447.43 L 660.37 455.00 C 661.14 455.35 662.03 455.31 662.76 454.90 L 671.34 449.95 C 672.05 449.54 672.13 448.95 671.52 448.57 L 658.40 441.00 C 657.63 440.65 656.74 440.69 656.00 441.10 L 647.42 446.10 C 646.71 446.46 646.63 447.08 647.25 447.43 Z" fill="#fcfcfc" fill-rule="nonzero" stroke="none"></path><path d="M 625.63 435.79 L 638.75 443.36 C 639.52 443.71 640.41 443.67 641.14 443.26 L 649.72 438.31 C 650.43 437.90 650.55 436.52 649.94 436.16 L 636.78 429.35 C 636.01 429.00 635.12 429.04 634.38 429.45 L 625.59 433.71 C 625.28 433.97 625.11 434.36 625.11 434.76 C 625.12 435.16 625.31 435.54 625.63 435.79 Z" fill="#3f3f3f" fill-rule="nonzero" stroke="none"></path><path d="M 625.59 434.93 L 638.71 442.50 C 639.48 442.85 640.36 442.81 641.10 442.40 L 649.69 437.45 C 650.39 437.04 650.47 436.45 649.86 436.06 L 636.74 428.49 C 635.97 428.14 635.08 428.18 634.35 428.59 L 625.76 433.59 C 625.05 434.00 625.00 434.57 625.59 434.93 Z" fill="#fcfcfc" fill-rule="nonzero" stroke="none"></path><path d="M 604.00 423.23 L 617.12 430.80 C 617.89 431.15 618.78 431.11 619.51 430.70 L 628.10 425.75 C 628.80 425.34 628.90 424.01 628.29 423.66 L 615.15 416.79 C 614.38 416.44 613.49 416.48 612.75 416.89 L 603.96 421.22 C 603.65 421.47 603.48 421.84 603.49 422.23 C 603.49 422.63 603.68 423.00 604.00 423.23 Z" fill="#3f3f3f" fill-rule="nonzero" stroke="none"></path><path d="M 603.93 422.42 L 617.05 430.00 C 617.82 430.35 618.71 430.31 619.44 429.90 L 628.03 424.95 C 628.74 424.54 628.81 423.95 628.20 423.57 L 615.08 416.00 C 614.31 415.65 613.43 415.69 612.69 416.10 L 604.10 421.10 C 603.39 421.45 603.32 422.07 603.93 422.42 Z" fill="#fcfcfc" fill-rule="nonzero" stroke="none"></path><path d="M 582.33 410.72 L 595.45 418.29 C 596.22 418.64 597.10 418.61 597.84 418.20 L 606.43 413.20 C 607.13 412.79 607.24 411.49 606.62 411.13 L 593.48 404.24 C 592.71 403.89 591.83 403.93 591.09 404.34 L 582.18 408.78 C 581.47 409.23 581.72 410.37 582.33 410.72 Z" fill="#3f3f3f" fill-rule="nonzero" stroke="none"></path><path d="M 582.27 409.92 L 595.39 417.49 C 596.16 417.84 597.05 417.80 597.78 417.39 L 606.37 412.44 C 607.08 412.03 607.15 411.44 606.54 411.05 L 593.42 403.48 C 592.65 403.13 591.76 403.17 591.02 403.58 L 582.44 408.53 C 581.74 408.94 581.66 409.56 582.27 409.92 Z" fill="#fcfcfc" fill-rule="nonzero" stroke="none"></path><path d="M 560.47 398.21 L 573.58 405.78 C 574.35 406.13 575.24 406.09 575.98 405.68 L 584.56 400.73 C 585.27 400.32 585.56 399.00 584.95 398.65 L 571.61 391.77 C 570.84 391.42 569.96 391.46 569.22 391.87 L 560.70 396.12 C 560.00 396.53 559.85 397.85 560.47 398.21 Z" fill="#3f3f3f" fill-rule="nonzero" stroke="none"></path><path d="M 560.61 397.41 L 573.73 405.00 C 574.50 405.36 575.39 405.32 576.13 404.91 L 584.71 399.91 C 585.42 399.50 585.50 398.91 584.88 398.53 L 571.76 391.00 C 570.99 390.65 570.11 390.69 569.37 391.10 L 560.79 396.10 C 560.08 396.44 560.00 397.06 560.61 397.41 Z" fill="#fcfcfc" fill-rule="nonzero" stroke="none"></path><path d="M 538.78 385.64 L 551.90 393.22 C 552.67 393.56 553.55 393.52 554.29 393.12 L 562.87 388.12 C 563.58 387.71 563.87 386.58 563.20 386.22 L 549.93 379.17 C 549.16 378.82 548.27 378.85 547.53 379.26 L 538.90 383.75 C 538.56 383.93 538.33 384.28 538.31 384.66 C 538.29 385.05 538.46 385.42 538.78 385.64 Z" fill="#3f3f3f" fill-rule="nonzero" stroke="none"></path><path d="M 539.00 384.91 L 552.12 392.48 C 552.89 392.83 553.78 392.79 554.52 392.38 L 563.10 387.43 C 563.81 387.02 563.89 386.43 563.27 386.04 L 550.15 378.47 C 549.38 378.12 548.50 378.16 547.76 378.57 L 539.17 383.52 C 538.42 383.93 538.34 384.55 539.00 384.91 Z" fill="#fcfcfc" fill-rule="nonzero" stroke="none"></path><path d="M 517.21 373.11 L 530.33 380.68 C 531.10 381.03 531.99 380.99 532.72 380.58 L 541.30 375.63 C 542.01 375.22 542.37 374.11 541.76 373.76 L 528.35 366.67 C 527.58 366.32 526.70 366.36 525.96 366.77 L 517.25 371.20 C 516.93 371.41 516.74 371.76 516.73 372.14 C 516.72 372.53 516.90 372.89 517.21 373.11 Z" fill="#3f3f3f" fill-rule="nonzero" stroke="none"></path><path d="M 517.29 372.40 L 530.41 380.00 C 531.18 380.35 532.07 380.31 532.81 379.90 L 541.39 374.90 C 542.10 374.49 542.18 373.90 541.56 373.52 L 528.44 366.00 C 527.67 365.66 526.79 365.70 526.05 366.10 L 517.47 371.10 C 516.76 371.43 516.68 372.05 517.29 372.40 Z" fill="#fcfcfc" fill-rule="nonzero" stroke="none"></path><path d="M 495.60 360.64 L 508.72 368.22 C 509.49 368.57 510.37 368.53 511.11 368.12 L 519.69 363.12 C 520.40 362.71 520.52 361.53 519.90 361.12 L 506.75 354.12 C 505.98 353.78 505.09 353.82 504.35 354.22 L 495.46 358.74 C 495.12 358.95 494.93 359.33 494.96 359.73 C 494.99 360.13 495.24 360.48 495.60 360.64 Z" fill="#3f3f3f" fill-rule="nonzero" stroke="none"></path><path d="M 495.64 359.90 L 508.76 367.47 C 509.53 367.82 510.42 367.78 511.15 367.37 L 519.73 362.42 C 520.44 362.01 520.52 361.42 519.90 361.03 L 506.78 353.46 C 506.01 353.11 505.13 353.15 504.39 353.56 L 495.81 358.51 C 495.10 358.92 495.00 359.54 495.64 359.90 Z" fill="#fcfcfc" fill-rule="nonzero" stroke="none"></path><path d="M 474.00 348.16 L 487.12 355.73 C 487.89 356.08 488.77 356.04 489.51 355.63 L 498.09 350.68 C 498.80 350.27 499.04 349.09 498.43 348.74 L 485.15 341.74 C 484.38 341.39 483.49 341.43 482.75 341.84 L 474.00 346.11 C 473.68 346.36 473.50 346.73 473.50 347.13 C 473.50 347.54 473.68 347.91 474.00 348.16 Z" fill="#3f3f3f" fill-rule="nonzero" stroke="none"></path><path d="M 474.00 347.39 L 487.10 355.00 C 487.87 355.35 488.75 355.31 489.49 354.90 L 498.07 349.90 C 498.78 349.49 498.86 348.90 498.24 348.52 L 485.13 341.00 C 484.36 340.65 483.47 340.69 482.73 341.10 L 474.15 346.10 C 473.44 346.42 473.36 347.00 474.00 347.39 Z" fill="#fcfcfc" fill-rule="nonzero" stroke="none"></path><path d="M 452.24 335.79 L 465.36 343.36 C 466.13 343.71 467.01 343.68 467.75 343.27 L 476.34 338.27 C 477.04 337.86 477.34 336.42 476.75 336.07 L 463.39 329.31 C 462.62 328.96 461.73 329.00 460.99 329.41 L 452.49 333.46 C 451.78 333.91 451.63 335.44 452.24 335.79 Z" fill="#3f3f3f" fill-rule="nonzero" stroke="none"></path><path d="M 452.32 334.89 L 465.44 342.46 C 466.21 342.81 467.10 342.77 467.83 342.36 L 476.41 337.41 C 477.12 337.00 477.20 336.41 476.59 336.03 L 463.47 328.45 C 462.70 328.10 461.81 328.14 461.07 328.55 L 452.49 333.50 C 451.78 333.91 451.70 334.53 452.32 334.89 Z" fill="#fcfcfc" fill-rule="nonzero" stroke="none"></path><path d="M 399.33 305.24 L 442.41 330.12 C 443.76 330.73 445.31 330.66 446.60 329.94 L 453.26 326.10 C 454.50 325.38 454.91 323.54 453.84 322.92 L 410.48 298.81 C 409.14 298.20 407.58 298.26 406.29 298.98 L 399.58 302.05 C 399.01 302.36 398.64 302.93 398.59 303.58 C 398.54 304.22 398.82 304.85 399.33 305.24 Z" fill="#3f3f3f" fill-rule="nonzero" stroke="none"></path><path d="M 399.41 304.34 L 442.49 329.22 C 443.84 329.83 445.39 329.76 446.68 329.04 L 453.34 325.20 C 454.58 324.48 454.72 323.40 453.64 322.78 L 410.56 297.91 C 409.22 297.30 407.66 297.36 406.37 298.08 L 399.71 301.92 C 398.47 302.64 398.34 303.72 399.41 304.34 Z" fill="#fcfcfc" fill-rule="nonzero" stroke="none"></path><path d="M 701.46 459.42 L 716.79 468.27 C 717.43 468.57 718.18 468.54 718.79 468.19 L 723.36 465.55 C 723.94 465.21 724.09 464.19 723.59 463.90 L 708.17 455.57 C 707.53 455.27 706.78 455.30 706.17 455.65 L 701.41 457.84 C 701.17 458.04 701.04 458.33 701.05 458.64 C 701.06 458.95 701.21 459.24 701.46 459.42 Z" fill="#3f3f3f" fill-rule="nonzero" stroke="none"></path><path d="M 701.46 458.83 L 716.79 467.68 C 717.43 467.98 718.18 467.95 718.79 467.60 L 723.36 464.96 C 723.94 464.63 724.00 464.12 723.50 463.83 L 708.13 455.00 C 707.49 454.70 706.74 454.73 706.13 455.08 L 701.57 457.72 C 701.00 458.00 701.00 458.54 701.46 458.83 Z" fill="#fcfcfc" fill-rule="nonzero" stroke="none"></path><path d="M 675.43 444.37 L 690.76 453.22 C 691.40 453.52 692.15 453.49 692.76 453.14 L 697.33 450.50 C 697.91 450.17 698.11 449.21 697.61 448.92 L 682.14 440.52 C 681.50 440.22 680.75 440.25 680.14 440.60 L 675.48 442.81 C 675.24 442.99 675.09 443.27 675.08 443.58 C 675.07 443.88 675.20 444.17 675.43 444.37 Z" fill="#3f3f3f" fill-rule="nonzero" stroke="none"></path><path d="M 675.47 443.82 L 690.80 452.67 C 691.44 452.97 692.19 452.94 692.80 452.59 L 697.37 449.96 C 697.95 449.62 698.01 449.12 697.51 448.83 L 682.14 440.00 C 681.50 439.70 680.75 439.74 680.14 440.09 L 675.57 442.72 C 675.00 443.00 675.00 443.53 675.47 443.82 Z" fill="#fcfcfc" fill-rule="nonzero" stroke="none"></path><path d="M 649.45 429.46 L 664.78 438.31 C 665.42 438.61 666.17 438.58 666.78 438.23 L 671.35 435.60 C 671.93 435.26 672.20 434.25 671.70 433.96 L 656.16 425.61 C 655.52 425.32 654.77 425.35 654.16 425.70 L 649.50 427.83 C 649.23 428.01 649.06 428.31 649.05 428.63 C 649.04 428.96 649.19 429.26 649.45 429.46 Z" fill="#3f3f3f" fill-rule="nonzero" stroke="none"></path><path d="M 649.48 428.82 L 664.81 437.67 C 665.45 437.97 666.20 437.94 666.81 437.59 L 671.38 434.95 C 671.96 434.61 672.02 434.11 671.52 433.82 L 656.15 425.00 C 655.51 424.70 654.76 424.73 654.15 425.08 L 649.58 427.72 C 649.00 428.00 649.00 428.53 649.48 428.82 Z" fill="#fcfcfc" fill-rule="nonzero" stroke="none"></path><path d="M 623.45 414.48 L 638.78 423.33 C 639.42 423.63 640.17 423.60 640.78 423.25 L 645.35 420.61 C 645.93 420.27 646.13 419.23 645.63 418.93 L 630.16 410.63 C 629.52 410.33 628.77 410.36 628.16 410.71 L 623.52 412.83 C 623.24 413.00 623.06 413.31 623.05 413.64 C 623.04 413.97 623.19 414.28 623.45 414.48 Z" fill="#3f3f3f" fill-rule="nonzero" stroke="none"></path><path d="M 623.49 413.81 L 638.82 422.66 C 639.46 422.96 640.21 422.93 640.82 422.58 L 645.39 419.94 C 645.97 419.61 646.03 419.10 645.53 418.81 L 630.16 410.00 C 629.52 409.70 628.77 409.73 628.16 410.08 L 623.59 412.72 C 623.05 413.00 623.00 413.52 623.49 413.81 Z" fill="#fcfcfc" fill-rule="nonzero" stroke="none"></path><path d="M 597.54 399.59 L 612.87 408.44 C 613.51 408.74 614.26 408.71 614.87 408.36 L 619.43 405.72 C 620.01 405.39 620.16 404.21 619.66 403.92 L 604.25 395.74 C 603.61 395.44 602.86 395.47 602.25 395.82 L 597.50 397.82 C 597.24 398.04 597.10 398.37 597.10 398.71 C 597.11 399.06 597.27 399.38 597.54 399.59 Z" fill="#3f3f3f" fill-rule="nonzero" stroke="none"></path><path d="M 597.50 398.81 L 612.83 407.66 C 613.47 407.95 614.21 407.92 614.83 407.58 L 619.40 404.94 C 619.97 404.60 620.04 404.10 619.54 403.81 L 604.17 395.00 C 603.53 394.70 602.78 394.73 602.17 395.08 L 597.60 397.72 C 597.06 398.00 597.00 398.52 597.50 398.81 Z" fill="#fcfcfc" fill-rule="nonzero" stroke="none"></path><path d="M 571.51 384.62 L 586.84 393.47 C 587.48 393.77 588.23 393.74 588.84 393.39 L 593.40 390.76 C 593.98 390.42 594.14 389.17 593.64 388.88 L 578.22 380.77 C 577.58 380.47 576.83 380.50 576.22 380.86 L 571.53 382.79 C 571.27 383.02 571.12 383.35 571.12 383.70 C 571.11 384.05 571.26 384.38 571.51 384.62 Z" fill="#3f3f3f" fill-rule="nonzero" stroke="none"></path><path d="M 571.51 383.80 L 586.84 392.65 C 587.48 392.95 588.23 392.92 588.84 392.57 L 593.40 389.93 C 593.98 389.60 594.05 389.09 593.54 388.80 L 578.18 380.00 C 577.54 379.70 576.79 379.73 576.18 380.08 L 571.61 382.72 C 571.07 383.00 571.00 383.51 571.51 383.80 Z" fill="#fcfcfc" fill-rule="nonzero" stroke="none"></path><path d="M 545.58 369.73 L 560.91 378.58 C 561.55 378.88 562.30 378.85 562.91 378.50 L 567.47 375.87 C 568.05 375.53 568.17 374.19 567.67 373.87 L 552.28 365.87 C 551.64 365.56 550.89 365.59 550.28 365.95 L 545.43 367.84 C 544.86 368.20 545.08 369.44 545.58 369.73 Z" fill="#3f3f3f" fill-rule="nonzero" stroke="none"></path><path d="M 545.52 368.79 L 560.85 377.64 C 561.49 377.94 562.24 377.91 562.85 377.56 L 567.41 374.92 C 567.99 374.59 568.06 374.09 567.55 373.80 L 552.18 365.00 C 551.55 364.71 550.83 364.74 550.23 365.08 L 545.66 367.71 C 545.08 368.00 545.00 368.50 545.52 368.79 Z" fill="#fcfcfc" fill-rule="nonzero" stroke="none"></path><path d="M 519.47 354.44 L 534.80 363.29 C 535.44 363.59 536.19 363.55 536.80 363.20 L 541.37 360.57 C 541.94 360.23 542.15 359.16 541.65 358.87 L 526.17 350.59 C 525.53 350.28 524.78 350.31 524.17 350.67 L 519.47 352.78 C 519.21 352.98 519.06 353.29 519.06 353.61 C 519.06 353.93 519.21 354.24 519.47 354.44 Z" fill="#3f3f3f" fill-rule="nonzero" stroke="none"></path><path d="M 519.53 353.79 L 534.86 362.64 C 535.50 362.94 536.25 362.91 536.86 362.56 L 541.42 359.92 C 542.00 359.59 542.07 359.08 541.56 358.79 L 526.23 349.94 C 525.59 349.64 524.84 349.67 524.23 350.02 L 519.66 352.66 C 519.09 353.00 519.00 353.50 519.53 353.79 Z" fill="#fcfcfc" fill-rule="nonzero" stroke="none"></path><path d="M 493.51 339.43 L 508.84 348.28 C 509.48 348.58 510.23 348.55 510.84 348.20 L 515.40 345.56 C 515.98 345.23 516.14 344.18 515.64 343.89 L 500.21 335.58 C 499.58 335.30 498.86 335.33 498.26 335.66 L 493.60 337.74 C 493.33 337.93 493.17 338.24 493.15 338.56 C 493.14 338.89 493.27 339.21 493.51 339.43 Z" fill="#3f3f3f" fill-rule="nonzero" stroke="none"></path><path d="M 493.54 338.78 L 508.87 347.63 C 509.50 347.92 510.22 347.89 510.82 347.55 L 515.39 344.91 C 515.97 344.58 516.03 344.07 515.53 343.78 L 500.20 334.93 C 499.57 334.65 498.85 334.68 498.25 335.01 L 493.68 337.65 C 493.10 338.00 493.00 338.49 493.54 338.78 Z" fill="#fcfcfc" fill-rule="nonzero" stroke="none"></path><path d="M 467.52 324.42 L 482.85 333.27 C 483.49 333.57 484.24 333.54 484.85 333.19 L 489.41 330.56 C 489.99 330.22 490.16 329.15 489.66 328.86 L 474.22 320.57 C 473.58 320.28 472.83 320.31 472.22 320.66 L 467.49 322.80 C 467.23 322.99 467.09 323.30 467.09 323.62 C 467.10 323.94 467.26 324.24 467.52 324.42 Z" fill="#3f3f3f" fill-rule="nonzero" stroke="none"></path><path d="M 467.55 323.78 L 482.88 332.63 C 483.52 332.93 484.27 332.89 484.88 332.54 L 489.44 329.91 C 490.02 329.57 490.08 329.07 489.58 328.78 L 474.25 319.93 C 473.61 319.63 472.86 319.66 472.25 320.01 L 467.69 322.65 C 467.11 323.00 467.05 323.49 467.55 323.78 Z" fill="#fcfcfc" fill-rule="nonzero" stroke="none"></path><path d="M 441.44 309.55 L 456.77 318.40 C 457.41 318.70 458.16 318.67 458.77 318.32 L 463.33 315.69 C 463.91 315.35 464.27 314.29 463.77 314.00 L 448.14 305.71 C 447.50 305.40 446.75 305.43 446.14 305.79 L 441.47 307.85 C 441.21 308.05 441.06 308.36 441.05 308.69 C 441.05 309.02 441.19 309.34 441.44 309.55 Z" fill="#3f3f3f" fill-rule="nonzero" stroke="none"></path><path d="M 441.56 308.77 L 456.89 317.62 C 457.52 317.90 458.24 317.87 458.84 317.54 L 463.41 314.90 C 463.99 314.57 464.05 314.06 463.55 313.77 L 448.22 304.92 C 447.58 304.62 446.83 304.65 446.22 305.00 L 441.66 307.64 C 441.12 308.00 441.05 308.48 441.56 308.77 Z" fill="#fcfcfc" fill-rule="nonzero" stroke="none"></path><path d="M 415.57 294.59 L 430.90 303.44 C 431.54 303.74 432.29 303.71 432.90 303.36 L 437.47 300.72 C 438.05 300.39 438.23 299.20 437.73 298.92 L 422.28 290.74 C 421.64 290.44 420.89 290.47 420.28 290.82 L 415.52 292.87 C 415.27 293.09 415.13 293.41 415.14 293.74 C 415.15 294.08 415.31 294.39 415.57 294.59 Z" fill="#3f3f3f" fill-rule="nonzero" stroke="none"></path><path d="M 415.57 293.76 L 430.90 302.61 C 431.54 302.92 432.29 302.89 432.90 302.53 L 437.47 299.90 C 438.05 299.56 438.11 299.06 437.61 298.77 L 422.28 289.92 C 421.64 289.62 420.89 289.65 420.28 290.00 L 415.72 292.63 C 415.13 293.00 415.06 293.47 415.57 293.76 Z" fill="#fcfcfc" fill-rule="nonzero" stroke="none"></path><path d="M 521.16 190.93 C 521.86 191.39 522.53 191.81 523.16 192.19 C 552.80 209.30 544.78 148.84 590.99 175.10 C 640.46 203.67 636.76 268.92 663.17 284.17 C 691.95 300.79 695.89 259.27 736.12 278.44 C 737.58 279.13 739.01 279.89 740.41 280.70 C 762.31 293.34 778.36 318.70 788.08 337.94 L 788.08 227.87 C 788.07 216.88 782.21 206.73 772.70 201.24 L 470.90 27.00 C 466.41 24.41 460.88 24.41 456.40 27.00 C 451.91 29.59 449.14 34.38 449.14 39.56 L 449.14 65.28 C 486.33 96.58 491.34 171.30 521.16 190.93 Z" fill="#2e0aa3" fill-rule="nonzero" stroke="none"></path><path d="M 212.36 277.84 C 165.10 272.84 153.49 363.54 142.80 413.37 C 132.71 460.43 188.80 472.10 217.41 473.78 C 246.02 475.46 212.36 277.84 212.36 277.84 Z" fill="#8b9ce0" fill-rule="nonzero" stroke="none"></path><path d="M 265.35 977.35 C 262.24 990.57 260.81 1017.21 277.21 1017.00 C 306.74 1016.61 298.33 1000.75 317.43 997.18 C 359.99 989.18 366.99 959.09 358.05 950.92 C 348.71 942.40 336.13 950.33 324.62 955.59 C 317.82 958.70 290.22 968.80 290.22 968.80 Z" fill="#264196" fill-rule="nonzero" stroke="none"></path><path d="M 264.77 973.42 C 261.66 986.63 260.23 1013.28 276.62 1013.06 C 306.16 1012.67 297.75 996.82 316.85 993.24 C 359.41 985.24 366.40 955.15 357.47 946.99 C 348.13 938.46 335.55 946.39 324.04 951.65 C 317.24 954.76 289.64 964.87 289.64 964.87 Z" fill="#15154f" fill-rule="nonzero" stroke="none"></path><path d="M 205.74 957.58 C 202.63 970.80 201.20 997.44 217.59 997.22 C 247.13 996.84 238.72 980.98 257.82 977.40 C 300.38 969.40 307.38 939.31 298.44 931.15 C 289.10 922.62 276.52 930.55 265.01 935.81 C 258.21 938.92 230.61 949.03 230.61 949.03 Z" fill="#264196" fill-rule="nonzero" stroke="none"></path><path d="M 205.16 953.64 C 202.05 966.86 200.61 993.51 217.01 993.29 C 246.55 992.90 238.14 977.04 257.24 973.47 C 299.80 965.47 306.79 935.38 297.85 927.22 C 288.52 918.69 275.94 926.62 264.43 931.88 C 257.63 934.99 230.03 945.09 230.03 945.09 Z" fill="#15154f" fill-rule="nonzero" stroke="none"></path><path d="M 191.18 518.05 C 191.18 518.05 167.05 548.65 178.37 619.65 C 189.69 690.65 197.15 730.21 191.75 766.42 C 186.35 802.63 204.89 887.00 201.70 920.23 C 198.51 953.46 206.26 961.30 216.77 962.34 C 227.28 963.38 256.87 965.84 256.70 951.85 C 256.53 937.86 258.27 870.99 261.15 851.52 C 264.03 832.05 267.35 794.25 264.67 753.52 C 262.78 724.78 265.00 698.32 262.85 664.14 C 260.28 623.23 250.53 563.83 255.50 533.63 C 263.66 484.00 191.18 518.05 191.18 518.05 Z" fill="#320c7e" fill-rule="nonzero" stroke="none"></path><path d="M 224.33 519.82 C 224.33 519.82 209.33 542.12 215.55 604.82 C 219.55 644.71 247.70 698.54 246.55 729.64 C 245.40 760.74 240.05 805.13 248.32 847.79 C 256.59 890.45 253.45 941.85 262.09 982.56 C 285.45 986.37 307.89 976.44 309.09 971.87 C 311.53 962.81 311.56 907.30 320.40 865.22 C 329.24 823.14 337.22 725.22 332.31 669.76 C 329.40 636.95 337.08 604.11 330.70 532.47 C 325.93 478.94 224.33 519.82 224.33 519.82 Z" fill="#3b3099" fill-rule="nonzero" stroke="none"></path><path d="M 311.78 161.67 C 329.07 162.22 333.61 176.01 333.69 183.58 C 333.77 191.15 330.37 203.23 331.12 208.73 C 331.87 214.23 332.89 227.36 331.27 235.64 C 329.56 244.48 329.69 269.70 308.48 268.72 C 292.91 268.01 304.33 298.10 304.33 298.10 C 304.33 298.10 290.84 312.91 275.00 313.10 C 259.16 313.29 244.00 301.00 244.00 301.00 C 244.00 301.00 258.00 269.90 254.00 251.67 C 250.00 233.44 253.52 178.31 253.52 178.31 Z" fill="#f9c0aa" fill-rule="nonzero" stroke="none"></path><path d="M 254.00 251.67 C 253.42 248.73 253.02 245.77 252.80 242.78 L 270.00 241.07 C 270.00 241.07 274.47 264.26 301.00 273.93 C 298.42 282.36 304.34 298.10 304.34 298.10 C 302.39 300.13 300.29 302.01 298.05 303.72 C 288.42 304.01 252.20 305.05 251.23 304.40 C 250.90 304.18 248.63 301.19 245.60 297.10 C 249.16 288.24 257.16 266.00 254.00 251.67 Z" fill="#f7af8f" fill-rule="nonzero" stroke="none"></path><path d="M 267.26 254.31 C 272.37 250.50 279.38 241.83 284.26 232.96 C 289.14 224.09 276.21 213.96 281.12 207.40 C 286.03 200.84 292.96 207.40 292.96 207.40 L 293.48 226.28 C 293.27 235.28 285.25 237.47 285.14 243.66 C 285.14 245.72 282.79 266.10 290.69 270.98 C 298.85 276.03 316.79 277.72 324.09 271.93 C 331.59 265.93 330.86 244.87 330.48 241.11 C 317.94 241.72 311.78 244.00 305.12 239.84 C 299.69 236.46 300.25 235.29 300.95 224.84 L 300.95 224.84 C 300.95 218.84 301.15 216.29 301.38 213.27 C 302.04 204.44 307.28 207.55 317.90 201.27 C 347.23 183.88 362.78 134.38 324.90 144.12 C 314.11 146.89 308.45 149.26 287.62 143.58 C 266.79 137.90 249.45 137.80 239.75 158.44 C 233.98 170.71 240.91 174.11 225.05 183.67 C 212.93 190.97 210.05 212.30 218.68 223.67 C 227.31 235.04 236.87 243.75 239.87 251.91 C 244.54 264.55 249.38 267.65 267.26 254.31 Z" fill="#320c7e" fill-rule="nonzero" stroke="none"></path><path d="M 204.52 278.09 C 217.47 274.18 234.52 280.98 245.22 285.56 C 261.85 292.66 273.32 294.41 287.30 294.56 C 308.04 294.83 355.09 298.64 366.71 321.23 C 381.03 349.05 343.26 426.84 336.56 451.79 C 329.86 476.74 333.62 533.26 333.73 542.59 C 333.84 551.92 266.59 551.34 225.32 545.59 C 184.05 539.84 178.32 536.20 176.38 498.93 C 175.63 484.76 175.64 451.72 170.04 404.75 C 164.92 361.93 175.57 286.83 204.52 278.09 Z" fill="#dbdafa" fill-rule="nonzero" stroke="none"></path><path d="M 486.67 439.83 C 486.67 439.83 494.47 442.51 502.08 440.63 C 509.69 438.75 532.55 427.10 535.72 433.39 C 538.64 439.17 522.23 440.84 523.32 444.10 C 525.59 450.92 565.14 437.97 566.88 443.43 C 568.26 447.74 546.23 449.64 547.12 452.31 C 548.01 454.98 547.02 458.93 544.75 460.01 C 542.48 461.09 544.25 462.48 543.17 465.15 C 542.09 467.82 539.36 466.29 539.17 467.97 C 539.02 470.32 537.31 472.28 535.00 472.73 C 531.17 473.59 512.89 475.56 504.20 469.73 C 491.05 460.91 484.40 464.64 484.40 464.64 Z" fill="#fcc9b4" fill-rule="nonzero" stroke="none"></path><path d="M 349.91 305.55 C 319.91 304.71 322.53 330.86 319.64 388.38 C 317.31 434.73 321.92 458.49 341.76 463.20 C 390.15 474.71 491.51 467.72 491.51 467.72 L 491.82 434.29 L 376.11 420.65 C 376.11 420.65 386.67 306.58 349.91 305.55 Z" fill="#8b9ce0" fill-rule="nonzero" stroke="none"></path></svg>