<svg class="icon" viewBox="0 0 1024 1024" version="1.1" xmlns="http://www.w3.org/2000/svg" width="200" height="200"><path d="M515.7 960.1c-29.2-0.1-52.9-23.9-52.9-53l-0.1-149.8c0.3-1.5 0.4-2.8 0.4-4V743l-10.1-2.1c-62.1-12.9-118.8-45.2-164-93.4-60-64.1-93.1-149.1-93.1-239.4v-107l-26.7 0.2c-6.3 0-12.2-2.5-16.7-7s-6.9-10.4-6.9-16.7c0-6.4 2.4-12.4 6.9-16.8 4.4-4.5 10.4-6.9 16.7-6.9h64.6l-102.9-103c-4.9-4.9-7.6-11.5-7.6-18.4 0-7 2.7-13.5 7.6-18.4 4.9-4.9 11.5-7.6 18.4-7.6s13.5 2.7 18.4 7.6l139.7 139.7h12.2V95c0-17.1 13.9-31.1 31.1-31.1 17.1 0 31 13.9 31 31.1l0.1 158.8h265.4V95c0-17.1 13.9-31 31.1-31 17.1 0 31 13.9 31 31.1v158.7l148.1 0.1c13.1 0 23.7 10.6 23.7 23.7 0 6.4-2.5 12.3-6.9 16.8-4.5 4.5-10.4 7-16.9 7h-21.9v106.9c0 94.5-35.7 182.2-100.5 246.9l-1.6 1.6c-1.7 1.7-3.5 3.3-5.4 5l-6.4 5.9L893 839.2c10.2 10.2 10.2 26.7 0 36.9-4.9 4.9-11.5 7.6-18.4 7.6-7 0-13.5-2.7-18.4-7.6L679.4 699.4l-3.1 1.9c-30.8 19-63.8 32.3-98.2 39.6l-10.7 2.3 0.7 10.9 0.2 2.4 0.1 150.7c0.1 14.1-5.4 27.3-15.4 37.4-10 10-23.3 15.5-37.3 15.5zM243.4 408.2c0 78.2 28.5 151.6 80.3 206.8 51.4 54.7 119.6 84.9 192 84.9 43 0 85.8-11.1 124-32l5.4-3-363.9-363.7h-37.9l0.1 107z m444.3 225.7l6.3-5.7c2.4-2.2 4.9-4.3 7.2-6.6 55-55.1 86.6-132.9 86.6-213.4v-12.7h-0.1v-94.2l-432.7-0.1 332.7 332.7z" fill="#516def" class="selected"></path></svg>