<svg class="icon" viewBox="0 0 1024 1024" version="1.1" xmlns="http://www.w3.org/2000/svg" width="200" height="200"><path d="M497.664 56.704a32 32 0 0 1 28.672 0l212.992 106.496 0.64 0.384 212.48 106.24a31.872 31.872 0 0 1 18.24 29.952v425.6a32 32 0 0 1-17.728 28.608l-425.92 212.928a31.936 31.936 0 0 1-29.888 0.128L71.04 753.92a32 32 0 0 1-17.728-28.608V298.688a32.32 32.32 0 0 1 17.728-28.672L497.664 56.704zM653.824 192L512 121.088 156.8 298.688l141.824 70.848L653.76 192zM370.176 405.312L512 476.224l355.136-177.536-141.824-70.912-355.072 177.536z m-86.336 28.416L117.312 350.464v355.072L480 886.912V531.776L284.736 434.112a35.008 35.008 0 0 1-0.832-0.384z m260.096 453.12l362.688-181.312V350.464L544 531.776v355.136z" fill="#ffffff"></path></svg>