<svg class="icon" viewBox="0 0 1024 1024" version="1.1" xmlns="http://www.w3.org/2000/svg" width="200" height="200"><path d="M695.466667 618.666667l59.733333-59.733334-76.8 8.533334z" fill="#157FFE"></path><path d="M614.4 669.866667l81.066667-51.2-17.066667-51.2z" fill="#072F6D"></path><path d="M699.733333 669.866667l-4.266666-51.2-81.066667 51.2z" fill="#064BA6"></path><path d="M584.533333 588.8l62.293334-49.066667-36.693334-32z" fill="#024EA7"></path><path d="M584.533333 622.933333l-29.866666-46.933333 29.866666 12.8z" fill="#134C9B"></path><path d="M610.133333 507.733333l-25.6 81.066667-29.866666-12.8 55.466666-68.266667" fill="#002D6C"></path><path d="M584.533333 622.933333h-81.066666l51.2-46.933333z" fill="#0B2C61"></path><path d="M652.8 456.533333l68.266667-46.933333 4.266666 81.066667-72.533333-34.133334" fill="#0F4EAC"></path><path d="M678.4 396.8l-25.6 59.733333 68.266667-46.933333-42.666667-12.8" fill="#1EDEE8"></path><path d="M755.2 349.866667l-34.133333 59.733333-42.666667-12.8z" fill="#0293F8"></path><path d="M780.8 362.666667l-59.733333 46.933333 34.133333-59.733333z" fill="#0A4DAA"></path><path d="M802.133333 277.333333l29.866667 38.4-51.2 46.933334-25.6-12.8z" fill="#0282F1"></path><path d="M878.933333 251.733333l-46.933333 64-29.866667-38.4z" fill="#2DDDFB"></path><path d="M780.8 362.666667l34.133333 8.533333 17.066667-55.466667z" fill="#034DAB"></path><path d="M861.866667 349.866667l-46.933334 21.333333 17.066667-55.466667z" fill="#0583E1"></path><path d="M878.933333 251.733333l-17.066666 98.133334-29.866667-34.133334z" fill="#0897FF"></path><path d="M678.4 396.8l-106.666667 38.4V349.866667l106.666667 46.933333" fill="#2EDCFC"></path><path d="M469.333333 371.2l102.4 64h-98.133333z" fill="#32D4FB"></path><path d="M571.733333 349.866667v85.333333l-102.4-64z" fill="#0594FE"></path><path d="M345.6 473.6l128-38.4-4.266667-64-123.733333 102.4" fill="#0D82E4"></path><path d="M311.466667 529.066667l34.133333-55.466667-46.933333-29.866667 12.8 85.333334" fill="#0199EC"></path><path d="M469.333333 371.2l17.066667-81.066667 85.333333 59.733334z" fill="#047DEB"></path><path d="M328.533333 354.133333l17.066667 119.466667 123.733333-102.4z" fill="#0197F9"></path><path d="M298.666667 443.733333l46.933333 29.866667-17.066667-119.466667z" fill="#0581E3"></path><path d="M251.733333 332.8l76.8 21.333333-29.866666 89.6z" fill="#064BAC"></path><path d="M413.866667 285.866667L328.533333 354.133333l140.8 17.066667z" fill="#31D9FB"></path><path d="M486.4 290.133333l-17.066667 81.066667-55.466666-85.333333z" fill="#0298F2"></path><path d="M328.533333 273.066667l85.333334 12.8-85.333334 68.266666z" fill="#0199FC"></path><path d="M251.733333 332.8l76.8 21.333333V273.066667z" fill="#0080E5"></path><path d="M298.666667 256L251.733333 332.8l76.8-59.733333z" fill="#004AB6"></path><path d="M332.8 183.466667l-34.133333 72.533333 29.866666 17.066667z" fill="#069DFA"></path><path d="M413.866667 285.866667l-85.333334-12.8 4.266667-89.6z" fill="#0780E2"></path><path d="M486.4 243.2v46.933333l-72.533333-4.266666z" fill="#0C4FA3"></path><path d="M332.8 183.466667l81.066667 102.4-17.066667-145.066667z" fill="#0282E0"></path><path d="M439.466667 192l-25.6 93.866667-17.066667-145.066667z" fill="#054CAB"></path><path d="M537.6 213.333333l-51.2 29.866667v46.933333z" fill="#2BD9FF"></path><path d="M439.466667 192l-25.6 93.866667 123.733333-72.533334z" fill="#0A9AF6"></path><path d="M516.266667 123.733333l-76.8 68.266667 98.133333 21.333333z" fill="#2DE1FF"></path><path d="M396.8 140.8l42.666667 51.2 17.066666-81.066667z" fill="#019BFF"></path><path d="M473.6 59.733333L396.8 140.8l59.733333-29.866667z" fill="#0F78DE"></path><path d="M465.066667 106.666667l-8.533334 4.266666 17.066667-51.2z" fill="#54CFF8"></path><path d="M516.266667 123.733333l34.133333-102.4-38.4 72.533334z" fill="#47C6E2"></path><path d="M473.6 115.2l-17.066667-4.266667-17.066666 81.066667 76.8-68.266667-41.813334-8.96z" fill="#1577EC"></path><path d="M473.6 115.2l42.666667 8.533333-4.266667-29.866666z" fill="#0096FF"></path><path d="M474.026667 114.773333h0.426666-0.426666zM550.4 21.333333l-74.24 90.453334L512 93.866667zM474.453333 114.773333h-0.426666l-0.426667 0.426667" fill="#0D88E0"></path><path d="M474.453333 114.773333L512 93.866667l-35.84 17.92-2.133333 2.986666z" fill="#0D88E0"></path><path d="M472.746667 114.346667h-0.853334l0.426667-0.426667L465.066667 106.666667l-8.533334 4.266666 16.213334 3.413334z" fill="#47C6E2"></path><path d="M473.6 115.2l-0.853333-0.853333-16.213334-3.413334" fill="#47C6E2"></path><path d="M472.746667 114.346667l-0.426667-0.426667-0.426667 0.426667z" fill="#47C6E2"></path><path d="M153.6 725.333333h59.733333v8.533334H153.6z" fill="#060606"></path><path d="M153.6 725.333333h12.8v21.333334h-12.8zM221.866667 725.333333v8.533334h76.8v21.333333H221.866667v8.533333h76.8v17.066667H221.866667v76.8l46.933333-38.4 29.866667 34.133333h17.066666l-46.933333-51.2-38.4 34.133334v-42.666667h76.8v-68.266667zM153.6 755.2h59.733333v8.533333h-34.133333v17.066667h34.133333v12.8h-34.133333v51.2h34.133333v12.8H166.4v-64h-12.8v-12.8h12.8v-17.066667h-12.8z" fill="#060606"></path><path d="M328.533333 725.333333h55.466667v8.533334H328.533333zM328.533333 780.8v12.8h29.866667l-34.133333 59.733333h17.066666l42.666667-72.533333zM392.533333 725.333333v8.533334h72.533334v123.733333h12.8v-123.733333h4.266666v-8.533334z" fill="#060606"></path><path d="M396.8 750.933333h55.466667v8.533334H396.8zM396.8 827.733333h55.466667v12.8H396.8z" fill="#060606"></path><path d="M396.8 750.933333h8.96v89.6H396.8zM443.733333 750.933333h8.96v89.6H443.733333z" fill="#060606"></path><path d="M499.2 725.333333h72.533333v8.533334h-72.533333zM588.8 819.2h72.533333v8.533333h-72.533333zM590.318933 788.066133l55.509334-46.690133 5.4912 6.528-55.509334 46.690133z" fill="#060606"></path><path d="M590.318933 817.9328l55.509334-46.690133 5.495466 6.528-55.509333 46.690133zM524.8 849.066667h72.533333v8.533333h-72.533333zM524.8 819.2h51.2v8.533333h-51.2zM507.733333 793.6h68.266667v8.533333h-68.266667zM507.733333 768h68.266667v8.533333h-68.266667zM499.2 742.4h162.133333v8.533333h-162.133333z" fill="#060606"></path><path d="M499.2 857.6h8.533333v-115.2h-8.533333M588.8 857.6h8.533333v-132.266667h-8.533333M644.266667 857.6h8.533333v-132.266667h-8.533333M567.466667 802.133333h8.533333v-34.133333h-8.533333M524.8 857.6h8.533333v-115.2h-8.533333M546.133333 857.6h8.533334v-115.2h-8.533334" fill="#060606"></path><path d="M678.4 725.333333h72.533333v8.533334h-72.533333zM789.333333 793.6h42.666667v8.533333h-42.666667zM789.333333 819.2h42.666667v8.533333h-42.666667zM704 810.666667h29.866667v8.533333h-29.866667zM743.8592 811.52l6.114133-5.956267 20.842667 21.393067-6.114133 5.956267zM686.933333 793.6h68.266667v8.533333h-68.266667zM686.933333 768h68.266667v8.533333h-68.266667zM678.4 742.4h162.133333v8.533333h-162.133333z" fill="#060606"></path><path d="M678.4 857.6h8.533333v-115.2h-8.533333M746.666667 802.133333h8.533333v-34.133333h-8.533333M704 857.6h8.533333v-115.2h-8.533333M725.333333 857.6h8.533334v-115.2h-8.533334M789.333333 827.733333h8.533334v-102.4h-8.533334M806.4 853.333333h8.533333v-72.533333h-8.533333" fill="#060606"></path><path d="M759.466667 725.333333h17.066666l55.466667 46.933334h-17.066667z" fill="#060606"></path><path d="M827.733333 725.333333h-17.066666l-55.466667 46.933334h17.066667zM706.133333 838.4l5.973334 6.4 59.306666-52.48-5.973333-6.4z" fill="#060606"></path><path d="M771.84 780.373333l-6.4 5.546667 5.973333 6.4 6.4-5.973333z" fill="#060606"></path><path d="M777.813333 786.346667l-6.4 5.973333 12.373334 12.373333 6.4-5.546666z" fill="#060606"></path><path d="M790.613333 798.72l-0.426666 0.426667 5.12 5.546666-5.973334 5.973334-5.546666-5.973334-54.186667 46.506667 5.973333 6.4 61.44-52.48z" fill="#060606"></path><path d="M795.306667 804.693333l-5.12-5.546666-6.4 5.546666 5.546666 5.973334z" fill="#060606"></path><path d="M260.266667 883.2h17.066666v68.266667h-17.066666z" fill="#060606"></path><path d="M324.266667 883.2h21.333333l-46.933333 34.133333 55.466666 38.4h-25.6l-52.48-38.4zM354.133333 883.2h21.333334l29.866666 25.6 34.133334-25.6h21.333333l-46.933333 34.133333v38.4h-17.066667v-38.4zM477.866667 883.2h17.066666v59.733333h55.466667v12.8h-72.533333zM571.733333 883.2h17.066667v72.533333h-17.066667zM618.666667 883.2h17.066666l76.8 55.466667v-55.466667h17.066667v72.533333h-17.066667l-76.8-55.466666v55.466666h-17.066666z" fill="#060606"></path><path d="M298.666667 610.133333l51.2 34.133334H268.8z" fill="#092C73"></path><path d="M362.666667 567.466667l-12.8 76.8-51.2-34.133334z" fill="#014CB0"></path><path d="M311.466667 529.066667l51.2 38.4-64 42.666666 29.866666-38.4z" fill="#127BDA"></path><path d="M345.6 473.6l-34.133333 55.466667 51.2 38.4z" fill="#0A2A6D"></path><path d="M473.6 435.2l-110.933333 132.266667-17.066667-93.866667z" fill="#0748A8"></path><path d="M465.066667 520.533333l8.533333-85.333333-68.266667 81.493333z" fill="#04297A"></path><path d="M558.933333 473.6l-93.866666 46.933333 8.533333-85.333333z" fill="#0081DC"></path><path d="M571.733333 435.2l-12.8 38.4-85.333333-38.4z" fill="#034DAB"></path><path d="M652.8 456.533333l-93.866667 17.066667 12.8-38.4z" fill="#0581E4"></path><path d="M678.4 396.8l-25.6 59.733333-81.066667-21.333333z" fill="#0197F8"></path><path d="M558.933333 473.6l51.2 34.133333 42.666667-51.2z" fill="#0046A3"></path><path d="M725.333333 490.666667l-72.533333-34.133334-42.666667 51.2z" fill="#0297FE"></path><path d="M678.4 567.466667l46.933333-76.8-115.2 17.066666z" fill="#0681E8"></path><path d="M755.2 558.933333l-29.866667-68.266666-46.933333 76.8z" fill="#074AA5"></path></svg>