<svg class="icon" viewBox="0 0 1024 1024" version="1.1" xmlns="http://www.w3.org/2000/svg" width="200" height="200"><path d="M341 157.3a80 80 0 1 1-80 80 80.08 80.08 0 0 1 80-80m0-40a120 120 0 1 0 120 120 120 120 0 0 0-120-120zM649.54 432.5a80 80 0 1 1-80 80 80.09 80.09 0 0 1 80-80m0-40a120 120 0 1 0 120 120 120 120 0 0 0-120-120zM373.75 701.15a80 80 0 1 1-80 80 80.09 80.09 0 0 1 80-80m0-40a120 120 0 1 0 120 120 120 120 0 0 0-120-120z" fill="#4361ee"></path><path d="M223.75 217.3H84a20.06 20.06 0 0 0-20 20 20.06 20.06 0 0 0 20 20h139.75zM940 217.3H523.75v40H940a20.06 20.06 0 0 0 20-20 20.06 20.06 0 0 0-20-20zM469.54 489.22H84a20 20 0 0 0 0 40h385.54zM940 489.22H769.54v40H940a20 20 0 0 0 0-40zM253.75 761.15H84a20.06 20.06 0 0 0-20 20 20.06 20.06 0 0 0 20 20h169.75zM940 761.15H553.75v40H940a20.06 20.06 0 0 0 20-20 20.06 20.06 0 0 0-20-20z" fill="#4361ee"></path></svg>